<?xml version="1.0" encoding="utf-8"?>
<!-- Generator: Adobe Illustrator 27.5.0, SVG Export Plug-In . SVG Version: 6.00 Build 0)  -->
<svg version="1.1" xmlns="http://www.w3.org/2000/svg" xmlns:xlink="http://www.w3.org/1999/xlink" x="0px" y="0px"
	 viewBox="0 0 500 500" style="enable-background:new 0 0 500 500;" xml:space="preserve">
<g id="BACKGROUND">
	<linearGradient id="SVGID_1_" gradientUnits="userSpaceOnUse" x1="250.0058" y1="10.7466" x2="249.9995" y2="459.3029">
		<stop  offset="0" style="stop-color:#BA1E7B"/>
		<stop  offset="0.2" style="stop-color:#E74773"/>
		<stop  offset="0.55" style="stop-color:#F5AF60"/>
		<stop  offset="1" style="stop-color:#FFFFFF"/>
	</linearGradient>
	<rect x="0.005" style="fill-rule:evenodd;clip-rule:evenodd;fill:url(#SVGID_1_);" width="499.995" height="500"/>
</g>
<g id="OBJECTS">
	
		<linearGradient id="SVGID_00000164509934036714313560000009036314595570822795_" gradientUnits="userSpaceOnUse" x1="275.0236" y1="10.7756" x2="275.0173" y2="459.2474">
		<stop  offset="0" style="stop-color:#C65587"/>
		<stop  offset="0.2" style="stop-color:#EA6B80"/>
		<stop  offset="0.55" style="stop-color:#EFB572"/>
		<stop  offset="1" style="stop-color:#F6EFE7"/>
	</linearGradient>
	<path style="fill-rule:evenodd;clip-rule:evenodd;fill:url(#SVGID_00000164509934036714313560000009036314595570822795_);" d="
		M368.38,211.689c0,0-46.355,0-74.103,5.469c-27.736,5.469-59.384,6.645-79.311,8.206c-19.927,1.562-25.396,3.516-33.988,8.201
		c-8.598,4.691-75.41,4.304-99.636,5.083c-24.221,0.783,66.812,7.03,112.527,8.984c45.715,1.953,74.235,10.945,89.084,7.035
		c14.846-3.907,39.458-14.066,56.648-8.989c17.189,5.082,28.778,5.86,28.778,5.86s45.069-0.387,61.868-7.422
		c16.803-7.031,37.509-3.516,41.415-10.159c3.907-6.639-2.736-11.33-23.442-11.33C427.516,222.626,406.026,208.952,368.38,211.689z"
		/>
	
		<linearGradient id="SVGID_00000047756665171474792750000017733119042718511513_" gradientUnits="userSpaceOnUse" x1="103.649" y1="10.7512" x2="103.6427" y2="459.2663">
		<stop  offset="0" style="stop-color:#C24883"/>
		<stop  offset="0.2" style="stop-color:#E9607C"/>
		<stop  offset="0.55" style="stop-color:#F0B36D"/>
		<stop  offset="1" style="stop-color:#F9F4EE"/>
	</linearGradient>
	<path style="fill-rule:evenodd;clip-rule:evenodd;fill:url(#SVGID_00000047756665171474792750000017733119042718511513_);" d="
		M0.005,159.986v-37.534c0,0,37.301,0.005,59.619,5.153c22.323,5.153,47.785,6.257,63.815,7.727
		c16.035,1.47,20.436,3.312,27.35,7.728c6.919,4.416,44.657,2.29,54.771,5.759c10.108,3.47-25.818,9.163-62.6,11.004
		c-36.782,1.842-62.275,6.787-74.22,3.108c-11.945-3.683-31.75-13.247-45.582-8.465C9.325,159.249,0.005,159.986,0.005,159.986z"/>
	
		<linearGradient id="SVGID_00000013153933942886428970000007556556615047496577_" gradientUnits="userSpaceOnUse" x1="354.4709" y1="10.7527" x2="354.4645" y2="459.2616">
		<stop  offset="0" style="stop-color:#C24883"/>
		<stop  offset="0.2" style="stop-color:#E9607C"/>
		<stop  offset="0.55" style="stop-color:#F0B36D"/>
		<stop  offset="1" style="stop-color:#F9F4EE"/>
	</linearGradient>
	<path style="fill-rule:evenodd;clip-rule:evenodd;fill:url(#SVGID_00000013153933942886428970000007556556615047496577_);" d="
		M500,76.554v39.854c0,0-11.584-0.783-28.774-5.86c-17.189-5.083-41.808,5.077-56.652,8.984c-14.845,3.912-43.37-5.077-89.079-7.031
		c-45.715-1.953-136.748-8.206-112.527-8.984c24.226-0.783,91.038-0.392,99.631-5.082c8.598-4.69,14.066-6.644,33.993-8.206
		c19.927-1.562,51.571-2.731,79.317-8.201C453.645,76.559,500,76.554,500,76.554z"/>
	<path style="fill-rule:evenodd;clip-rule:evenodd;fill:#EFD6B2;" d="M500,377.568c-98.862,9.859-121.13,10.571-198.051-1.19
		c-46.224-7.071-76.992-14.274-108.188-13.735c-22.44,0.387-44.239,5.911-73.919,16.167c-44.769,15.466-84.704,0.325-119.838-9.91
		v55.086c91.039,9.829,159.23,17.103,159.23,17.103l-3.47-10.49c90.651,2.056,230.849,4.446,344.235,6.257V377.568z"/>
	<path style="fill-rule:evenodd;clip-rule:evenodd;fill:#E6CBA6;" d="M0,389.981c18.07-0.834,28.286-3.592,51.561-0.091
		c93.765,14.102,112.207,15.933,182.188,6.216c40.694-5.637,67.876-11.904,95.154-10.398c19.627,1.079,38.501,7.265,64.115,18.427
		c39.366,17.154,75.451,2.391,106.982-6.736v55.238c-81.855,7.193-143.637,12.535-143.637,12.535l3.398-10.388
		c-95.911-0.875-255.115-3.49-359.762-5.321V389.981z"/>
	<path style="fill-rule:evenodd;clip-rule:evenodd;fill:#DCC29A;" d="M500,410.819c-18.06-0.835-28.275-3.592-51.555-0.081
		c-93.76,14.102-112.207,15.923-182.188,6.217c-40.694-5.648-67.871-11.904-95.149-10.409c-19.627,1.089-38.506,7.274-64.121,18.436
		c-39.366,17.154-75.451,2.391-106.982-6.736v55.229c81.856,7.204,143.637,12.535,143.637,12.535l-3.398-10.378
		c95.912-0.875,255.115-3.5,359.757-5.321V410.819z"/>
	
		<linearGradient id="SVGID_00000048490025308835421930000018350039800850574471_" gradientUnits="userSpaceOnUse" x1="534.5909" y1="378.4553" x2="-1.257" y2="360.7234">
		<stop  offset="0" style="stop-color:#0D051D"/>
		<stop  offset="0.27" style="stop-color:#3A2754"/>
		<stop  offset="1" style="stop-color:#AE5B48"/>
	</linearGradient>
	<path style="fill-rule:evenodd;clip-rule:evenodd;fill:url(#SVGID_00000048490025308835421930000018350039800850574471_);" d="
		M367.998,384.315c0-0.234-0.035-0.845,0.022-1.038c0.091-0.325,0.193-0.143,0.386-0.682c0.138-0.376,0.686-0.886,0.992-1.231
		c0.051,0.225,0.081,0.152,0.081,0.326c0,0.162-0.427,1.353-0.518,1.536C368.757,383.633,368.289,383.988,367.998,384.315
		L367.998,384.315z M350.727,428.89c-5.642-0.529-22.297,0.997-33.256,1.516c0.642-1.994,1.217-3.724,0.651-3.419
		c-0.702,0.387-1.389,2.311-2.05,3.48l-1.486,0.061c-0.406-1.75-0.132-5.484-0.864-4.701c-0.616,0.662-0.692,3.358-0.813,4.732
		l-0.692,0.01c-0.646-1.027-1.669-2.34-2.585-3.063c-0.752-0.601-1.373-0.631-0.6,0.406c0.534,0.732,1.027,1.669,1.465,2.646
		l-0.219-0.011c-7.453-0.265-6.323,2.106-13.705,1.557c0.6-1.882,1.094-3.439,0.56-3.144c-0.62,0.336-1.226,1.872-1.816,3.042
		c-0.514-0.041-1.14-0.081-1.831-0.122c-0.254-1.872-0.097-4.782-0.753-4.08c-0.518,0.56-0.651,2.554-0.759,3.998l-1.027-0.051
		c0.534-1.678,0.921-2.991,0.428-2.717c-0.433,0.234-0.859,1.059-1.282,1.934c-0.468-0.569-0.977-1.109-1.45-1.485
		c-0.752-0.601-1.373-0.631-0.6,0.407c0.376,0.519,0.737,1.14,1.073,1.811c-0.483-0.01-0.962-0.02-1.419-0.02
		c-0.209-1.873-0.102-4.478-0.723-3.806c-0.499,0.528-0.641,2.401-0.743,3.825c-0.483,0.021-0.931,0.041-1.333,0.082
		c-0.6-0.834-1.338-1.699-2.014-2.238c-0.754-0.591-1.374-0.631-0.602,0.417c0.428,0.579,0.835,1.302,1.201,2.065l-0.162,0.061
		c-6.045,2.768-1.832,2.676-7.535,1.17c-4.253-1.129-2.609,3.725-10.459-1.262c-2.366-1.506-3.338,1.13-5.373,2.534
		c0.637-1.984,1.195-3.693,0.637-3.389c-0.86,0.468-1.694,3.246-2.483,4.132c-0.254,0.04-0.528,0.051-0.813,0.04
		c-0.753-1.149-0.26-6.237-1.104-5.331c-0.642,0.691-0.692,3.602-0.83,4.914l-0.691-0.203c-0.651-1.018-1.664-2.32-2.569-3.033
		c-0.748-0.6-1.369-0.63-0.601,0.408c0.458,0.62,0.881,1.393,1.268,2.207c-5.846-0.936-3.368,3.48-10.516,1.414
		c-2.106-0.609-7.753-1.78-9.427-0.895c-6.929,3.662-4.589,1.455-11.34,1.424c-6.492-0.03-5.102-1.354-11.624,1.271
		c-0.707,0.285-1.628,0.408-2.671,0.428c0.621-2.381,1.561-5.107,0.972-4.752c-0.895,0.55-1.76,4.59-2.564,3.989
		c-0.799-0.601-0.295-5.942-1.028-5.047c-0.732,0.886-0.519,5.81-0.89,5.006c-0.433-0.946-1.511-2.636-2.447-3.47
		c-0.611-0.549-1.12-0.58-0.489,0.377c0.621,0.946,1.175,2.289,1.618,3.571c-3.49-0.387-7.015-0.916-8.552-0.122
		c-7.016,3.581-4.253,1.536-10.983,1.485c-6.41-0.051-4.294-2.147-10.729,1.506c-3.734,2.116-9.9-2.005-12.805-0.356
		c-0.799,0.448-1.46,0.824-2.02,1.119c0.025-3.673,0.427-9.452,0.905-10.652c0.697-1.75-4.319-8.414-5.871-9.777
		c-1.552-1.364-9.493,1.729-11.487,3.031c-1.256,0.824-4.421,8.811-6.573,15.395c-0.209-0.723-0.341-1.293-0.346-1.577
		c-0.021-1.272-4.899-4.121-6.222-4.568c-1.328-0.448-5.489,3.562-6.395,4.894c-0.366,0.55-0.447,3.154-0.366,6.187
		c-1.2,0.102-2.126-0.438-5.789-0.59c-7.209-0.296-13.517,0.265-21.092-0.326c-3.994-0.305-4.406,0.967-8.369,0.58
		c-2.432-3.357-5.876-9.585-7.28-10.958c-1.841-1.821-17.851-1.801-19.728-1.027c-1.872,0.783-3.19,3.246-4.391,3.51
		c-1.195,0.265-1.475-3.266-2.447-4.313c-0.977-1.038-6.084-2.005-7.402-1.862c-1.323,0.133-3.699,2.85-4.604,2.971
		c-0.905,0.112-10.551-5.697-11.751-7.132c-1.206-1.445-9.453-0.193-11.391,0.519c-1.939,0.723-2.992,9.178-2.793,11.549
		c0.071,0.824,1.76,3.164,4.055,5.941c-1.292,0.742-2.589,1.73-3.307,2.167c-4.96-3.316-1.673-1.902-7.748-2.94
		c-4.771-0.824-6.395-1.984-6.873-1.332v5.066c0.021,0.682,0.036,1.435,0.031,2.279l-0.031,38.633V500H500v-67.152
		c-0.041-7.845-0.122-12.932-0.234-13.044c-1.078-1.018-3.54-0.916-4.649-0.336c-7.387,3.887-6.227,0.682-10.48,0.946
		c-0.498,0.03-1.18,0.02-1.963-0.021c0.661-2.319,1.048-3.063,0.233-2.625c-0.814,0.448-1.037,2.289-1.902,1.709
		c-0.865-0.569-0.341-3.266-1.135-2.421c-0.788,0.844-0.539,3.154-0.931,2.391c-0.468-0.905-0.32-0.986-1.328-1.78
		c-0.661-0.529-1.053-0.651-0.529,0.366c0.321,0.61,0.301,0.65,0.483,2.015c-2.202-0.153-4.171-0.244-4.802,0.01
		c-5.938,2.411-2.854,0.916-7.52,1.648c-5.092,0.794-2.584,2.351-8.313,0.458c-1.195-0.396-8.232-1.791-9.107-1.506
		c-4.238,1.404-2.34,2.584-5.098,2.574c0.662-2.178,1.292-3.053,0.509-2.625c-0.783,0.428-1.485,2.879-2.351,2.31
		c-0.865-0.58-0.793-4.121-1.525-3.327c-0.738,0.783-0.193,2.768-0.407,3.307l-0.138-0.021c-0.473-0.905-0.891-1.007-1.897-1.801
		c-0.661-0.529-1.211-0.56-0.529,0.366c0.56,0.753,0.325,0.254,0.763,1.293c-4.883-0.316-15.541-0.347-18.049,0.528
		c-1.802,0.631-3.252,0.956-4.478,1.089l-5.81,0.244c-1.455-3.104-3.154-6.929-3.383-8.322c-0.412-2.523,4.838-46.488,6.252-50.782
		c1.414-4.304,21.469-19.271,25.132-22.537c3.652-3.256,8.119-12.291,8.709-13.481c0.591-1.19,37.163-25.05,41.289-28.011
		c3.119-2.238,0.392-6.247-1.135-8.079c-0.682-0.823-1.815-0.284-2.436,0.174c-5.993,4.324-23.88,18.355-28.515,19.912
		c-1.765,0.59,4.009-22.527,4.955-27.126c0.946-4.599,14.036-16.463,15.807-18.538c1.771-2.076,6.959-24.157,7.315-27.566
		c0.356-3.409-5.311-2.961-6.369-2.666c-1.063,0.295-3.774,19.568-4.722,21.786c-0.945,2.228-10.5,14.082-12.271,14.977
		c-1.771,0.886-1.647-29.798-1.297-34.688c0.351-4.894-5.545-2.818-6.843-1.038c-1.302,1.775,2.712,37.792,2.238,41.495
		c-0.468,3.714-6.369,27.125-7.433,27.573c-1.063,0.448-1.887-23.127-2.243-28.458c-0.351-5.332-9.91-24.013-10.734-24.305
		c-0.824-0.301-5.779,2.072-6.253,3.405c-0.473,1.333,8.141,19.271,9.32,22.832c1.181,3.552-0.468,38.827-0.585,41.055
		c-0.122,2.218-13.461,13.634-15.109,14.662c-1.647,1.038-8.257-21.337-9.436-23.412c-1.181-2.075-44.947-13.634-48.961-17.49
		c0,0-1.176-2.147-1.059-5.413c0.117-3.256,4.757-41.855,5.348-44.379c0.59-2.519-6.96-1.038-6.96-1.038s-4.706,42.009-6.237,43.932
		c-1.536,1.933-21.342-13.797-27.828-20.014c-6.49-6.227-7.793-0.152-7.793-0.152s39.157,32.183,40.811,34.99
		c1.653,2.818-11.914,1.038-13.329,1.333c-1.414,0.306-1.653,3.408-1.064,4.895c0.59,1.485,25.355,0.447,30.193,1.037
		c4.838,0.59,24.42,8.893,24.42,8.893s5.423,16.596,4.716,21.041c-0.707,4.447-11.085,14.234-14.158,21.052
		c-3.063,6.817-11.324,59.288-11.792,63.734c-0.062,0.539-0.076,1.017-0.062,1.444c-1.842,0.57-2.579,0.184-4.354-0.061
		c0.06-0.143,0.137-0.285,0.168-0.448c0.142-0.682-0.158-0.661,0.371-1.017c-0.03-0.133-0.066-0.316-0.122-0.448
		c-0.163-0.407-0.224-0.936-0.448-1.282c0.347-0.518,0.459-0.569,0.352-1.332c-0.092-0.642-0.046-0.846-0.198-1.618
		c-0.097-0.489-0.209-0.967-0.285-1.517c-0.046-0.295-0.015-0.549-0.065-0.834c-0.383-2.065,0.441-1.78,0.441-2.991
		c0-0.306-0.051-0.021-0.137-0.356c-0.173-0.702-0.229-1.598-0.433-2.269c-0.468-1.506-0.076-0.865-0.122-1.455
		c-0.051-0.743-0.214-0.193,0.01-1.109c0.27-1.078-0.045-2.696-0.355-3.632c-0.377-1.109,0.371-5.026,0.885-6.278
		c0.688-1.669,0.336-2.441,0.453-2.828c0.086-0.295,0.193-0.569,0.193-0.956c0-1.567-0.478-1.659,0.152-3.959
		c0.392-1.424,1.048-2.563,1.552-3.865c0.753-3.227,0.529-5.393-1.018-8.303c-0.356-0.672-1.734-2.045-0.661-3.317
		c4.365-7.387-5.388-7.417-5.326-5.321c0.147,0.621,0.152,0.885,0.01,1.496c-0.081,0.346,0.138,0.397-0.219,1.658
		c-0.051,0.184-0.107,0.355-0.184,0.56c-0.096,0.244-0.132,0.284-0.143,0.601c0.377,0,0.331,0.081,0.743,0.081
		c0,0.499-0.081,0.651-0.081,1.068c-0.275,0.061-0.58,0.152-0.58,0.488c0,0.479,0.239,0.102-0.056,0.509
		c-0.29,0.407-0.087-0.01-0.204,0.549c-0.06,0.306-0.106,0.225-0.228,0.499c-0.244,0.569-0.26,1.241-0.417,1.801
		c-0.122,0.448-0.296,0.733-0.387,1.181c-0.3,1.475-0.737,2.758-0.936,4.242c-0.07,0.469,0.016,0.285,0.016,0.662
		c0,0.132-0.473,0.244-0.61,0.793l-0.209,1.181c0,0.58,0.132,1.485,0.387,1.821c0.392,0.52,0.804,0.407,1.145,0.6
		c0.198,0.103-0.198-0.02,0.188,0.123c0,1.475-1.363,4.223-0.428,5.769c0.163,0.274,0.101,0.569,0.101,0.967
		c-0.02,4.497,1.059,7,1.71,10.938c0.214,1.262,0.509,0.6,0.509,2.452c0,0.438-0.163,0.691-0.163,1.15
		c0,0.752,0.285,0.915,0.458,1.506c0.239,0.813,0.111,1.658,0.111,2.513c0,0.519,0.164,1.149,0.164,2.056
		c0,0.926-0.143,1.75-0.28,2.676c-0.209,1.343,0.122,0.397-0.382,2.167c-0.076,0.274-0.021,0.102-0.152,0.336
		c-0.361,0.631,0.025,0.997,0.081,1.638c-0.025,0.01-0.371,0.57-1.058,1.129c-1.816,0.245-2.737,0.499-5.154-0.355
		c-2.335-0.814-3.484-0.03-4.635,0.854c0.342-1.119,0.515-1.882,0.153-1.679c-0.55,0.295-1.089,1.669-1.607,2.696
		c-0.438,0.234-0.916,0.407-1.491,0.488c-0.387-1.495-0.121-4.914-0.777-4.212c-0.55,0.59-0.611,2.98-0.723,4.191
		c-0.214-0.03-0.448-0.081-0.688-0.132c-0.574-0.886-1.43-1.974-2.197-2.585c-0.662-0.519-1.206-0.549-0.529,0.367
		C350.02,427.506,350.391,428.178,350.727,428.89L350.727,428.89z M369.967,378.657c0.179,0.753,0.555,1.079-0.162,1.557
		c0.254-1.079,0.56-0.387-0.163-1.149C369.744,378.912,369.855,378.789,369.967,378.657z"/>
	
		<linearGradient id="SVGID_00000065053459821476382530000017530840387513049729_" gradientUnits="userSpaceOnUse" x1="505.3784" y1="442.7997" x2="0.5137" y2="426.093">
		<stop  offset="0" style="stop-color:#412444"/>
		<stop  offset="0.27" style="stop-color:#5F4368"/>
		<stop  offset="1" style="stop-color:#B7715B"/>
	</linearGradient>
	<path style="fill-rule:evenodd;clip-rule:evenodd;fill:url(#SVGID_00000065053459821476382530000017530840387513049729_);" d="
		M134.245,439.217l1.308,1.964c0,0,5.128-15.14,6.303-16.076c1.17-0.926,6.634-4.487,10.155-4.487
		c-2.076-0.865-9.3,1.964-11.192,3.205C139.561,424.647,136.397,432.634,134.245,439.217z"/>
	
		<linearGradient id="SVGID_00000000197060803349371040000000048477008270152370_" gradientUnits="userSpaceOnUse" x1="494.0826" y1="450.9135" x2="2.0886" y2="434.6327">
		<stop  offset="0" style="stop-color:#412444"/>
		<stop  offset="0.27" style="stop-color:#5F4368"/>
		<stop  offset="1" style="stop-color:#B7715B"/>
	</linearGradient>
	<path style="fill-rule:evenodd;clip-rule:evenodd;fill:url(#SVGID_00000000197060803349371040000000048477008270152370_);" d="
		M127.418,433.03c0,0-4.762,4.121-4.833,5.851c-0.076,1.73-0.147,5.372-0.147,5.372s-1.181,0.244-1.521-0.102
		c-0.081-3.032,0-5.637,0.366-6.187C122.137,436.703,125.876,433.071,127.418,433.03L127.418,433.03z"/>
	
		<linearGradient id="SVGID_00000153685663313526200580000003693375262518618266_" gradientUnits="userSpaceOnUse" x1="518.3741" y1="447.6058" x2="-8.8118" y2="430.1605">
		<stop  offset="0" style="stop-color:#412444"/>
		<stop  offset="0.27" style="stop-color:#5F4368"/>
		<stop  offset="1" style="stop-color:#B7715B"/>
	</linearGradient>
	<path style="fill-rule:evenodd;clip-rule:evenodd;fill:url(#SVGID_00000153685663313526200580000003693375262518618266_);" d="
		M39.813,432.135l-2.075,2.351c0,0,8.531-4.894,11.177-4.67c-1.75-0.448-3.744-0.732-4.497-0.651
		C43.095,429.297,40.719,432.014,39.813,432.135z"/>
	
		<linearGradient id="SVGID_00000059285862893709638880000010288755262349996716_" gradientUnits="userSpaceOnUse" x1="504.714" y1="446.9638" x2="-8.6871" y2="429.9747">
		<stop  offset="0" style="stop-color:#513A4F"/>
		<stop  offset="0.27" style="stop-color:#6D506D"/>
		<stop  offset="1" style="stop-color:#BB7963"/>
	</linearGradient>
	<path style="fill-rule:evenodd;clip-rule:evenodd;fill:url(#SVGID_00000059285862893709638880000010288755262349996716_);" d="
		M13.995,437.486L13.995,437.486c0,0,2.376-9.177,4.503-10.225c2.122-1.059,9.564-2.259,9.564-2.259
		c-1.206-1.445-9.453-0.193-11.391,0.519c-1.939,0.723-2.992,9.178-2.793,11.549C13.889,437.182,13.929,437.324,13.995,437.486z"/>
	
		<linearGradient id="SVGID_00000059290813526087147460000013750263127411216048_" gradientUnits="userSpaceOnUse" x1="512.3779" y1="455.3795" x2="-8.4843" y2="438.1434">
		<stop  offset="0" style="stop-color:#4B2F48"/>
		<stop  offset="0.27" style="stop-color:#684868"/>
		<stop  offset="1" style="stop-color:#B7715B"/>
	</linearGradient>
	<path style="fill-rule:evenodd;clip-rule:evenodd;fill:url(#SVGID_00000059290813526087147460000013750263127411216048_);" d="
		M40.582,437.701c-0.051,0.02-4.167,1.893-4.045,7.569c-0.32-0.743-0.508-1.577-0.508-2.482c0-2.829,1.832-5.118,4.09-5.118
		C40.276,437.67,40.429,437.68,40.582,437.701L40.582,437.701z M43.283,439.553c0,0,1.297,0.967,1.439,1.943
		c0,0,1.399-7.123,6.075-6.787c-0.545-0.193-1.12-0.295-1.71-0.295C46.407,434.414,44.128,436.56,43.283,439.553z"/>
	
		<linearGradient id="SVGID_00000099637422386533807280000006133298575965170078_" gradientUnits="userSpaceOnUse" x1="270.8365" y1="363.3185" x2="231.9683" y2="366.1188">
		<stop  offset="0" style="stop-color:#0D051D"/>
		<stop  offset="0.42" style="stop-color:#3A2754"/>
		<stop  offset="1" style="stop-color:#AE5B48"/>
	</linearGradient>
	<path style="fill-rule:evenodd;clip-rule:evenodd;fill:url(#SVGID_00000099637422386533807280000006133298575965170078_);" d="
		M251.555,364.881c0,0-3.755-0.52-4.024,1.566c0,0,0.509-0.193,0.819-0.132c0,0,1.546,0.59,2.086,0.59c0,0-0.427,4.64,0.25,4.976
		c0.677,0.346,5.377-2.514,6.608-4.6c0,0,3.205,1.272,4.314,0.631c1.104-0.65,0.387-2.848,0.387-2.848s0.102-0.906-4.463-0.123
		c0,0-1.454-5.952-3.24-7.397C252.5,356.12,251.555,364.881,251.555,364.881z"/>
	
		<linearGradient id="SVGID_00000067203464154171722300000016041458728326495361_" gradientUnits="userSpaceOnUse" x1="270.7791" y1="376.2007" x2="117.2046" y2="380.2857">
		<stop  offset="0" style="stop-color:#0D051D"/>
		<stop  offset="0.39" style="stop-color:#3A2754"/>
		<stop  offset="1" style="stop-color:#AE5B48"/>
	</linearGradient>
	<path style="fill-rule:evenodd;clip-rule:evenodd;fill:url(#SVGID_00000067203464154171722300000016041458728326495361_);" d="
		M190.201,376.928c0,0-9.259-5.719-12.382-10.357c-3.124-4.63-3.185,4.7,3.978,9.899c0,0,1.949,4.599,6.731,4.538
		c0,0,3.408,3.754,6.054,2.808c0,0,3.454,3.979,5.092,5.017c1.638,1.048-0.219,4.894,1.969,5.992
		c2.188,1.089,2.808-0.447,2.808-0.447s5.881,3.969,7.479-0.041c0,0,7.214-0.956,6.105-3.337c-1.109-2.381-7.819-2.351-10.749-5.24
		c0,0,5.52-1.444,6.827-4.446c0,0,14.179-4.649,11.37-12.088c0,0,6.436-5.524,4.304-9.594c-2.142-4.061-15.44,13.461-26.337,17.765
		c0,0-3.322-0.916-7.311-2.788C192.149,372.735,190.201,376.928,190.201,376.928z"/>
	
		<linearGradient id="SVGID_00000023248745182238672930000007477401689823418256_" gradientUnits="userSpaceOnUse" x1="274.0876" y1="335.7768" x2="171.1434" y2="338.5153">
		<stop  offset="0" style="stop-color:#0D051D"/>
		<stop  offset="0.43" style="stop-color:#3A2754"/>
		<stop  offset="1" style="stop-color:#AE5B48"/>
	</linearGradient>
	<path style="fill-rule:evenodd;clip-rule:evenodd;fill:url(#SVGID_00000023248745182238672930000007477401689823418256_);" d="
		M220.079,336.26c0,0-6.207-3.836-8.303-6.939c-2.096-3.104-2.132,3.154,2.665,6.634c0,0,1.308,3.083,4.513,3.042
		c0,0,2.284,2.514,4.06,1.883c0,0,2.315,2.666,3.413,3.367c1.099,0.692-0.147,3.276,1.323,4.01c1.465,0.732,1.877-0.296,1.877-0.296
		s3.942,2.666,5.016-0.03c0,0,4.833-0.641,4.09-2.238c-0.743-1.598-5.24-1.577-7.204-3.51c0,0,3.704-0.967,4.574-2.982
		c0,0,9.503-3.113,7.621-8.099c0,0,4.314-3.703,2.885-6.431c-1.43-2.727-10.348,9.025-17.653,11.904c0,0-2.223-0.609-4.899-1.871
		C221.381,333.451,220.079,336.26,220.079,336.26z"/>
	
		<linearGradient id="SVGID_00000077326382357758639350000003178562646109660346_" gradientUnits="userSpaceOnUse" x1="309.7614" y1="363.995" x2="247.8647" y2="368.4562">
		<stop  offset="0" style="stop-color:#0D051D"/>
		<stop  offset="0.42" style="stop-color:#3A2754"/>
		<stop  offset="1" style="stop-color:#AE5B48"/>
	</linearGradient>
	<path style="fill-rule:evenodd;clip-rule:evenodd;fill:url(#SVGID_00000077326382357758639350000003178562646109660346_);" d="
		M279.061,366.488c0,0-5.977-0.824-6.415,2.492c0,0,0.814-0.315,1.308-0.223c0,0,2.468,0.956,3.321,0.956
		c0,0-0.682,7.376,0.397,7.915c1.078,0.54,8.557-4.008,10.53-7.325c0,0,5.103,2.035,6.863,0.997
		c1.755-1.037,0.615-4.527,0.615-4.527s0.163-1.445-7.102-0.193c0,0-2.32-9.493-5.169-11.773
		C280.563,352.529,279.061,366.488,279.061,366.488z"/>
	
		<linearGradient id="SVGID_00000159445635597982336960000001952416599839691447_" gradientUnits="userSpaceOnUse" x1="316.3091" y1="389.3731" x2="277.4298" y2="392.1742">
		<stop  offset="0" style="stop-color:#0D051D"/>
		<stop  offset="0.36" style="stop-color:#3A2754"/>
		<stop  offset="1" style="stop-color:#AE5B48"/>
	</linearGradient>
	<path style="fill-rule:evenodd;clip-rule:evenodd;fill:url(#SVGID_00000159445635597982336960000001952416599839691447_);" d="
		M297.025,390.938c0,0-3.755-0.519-4.029,1.567c0,0,0.514-0.193,0.824-0.132c0,0,1.546,0.59,2.086,0.59c0,0-0.428,4.64,0.249,4.975
		c0.677,0.336,5.372-2.513,6.608-4.608c0,0,3.205,1.282,4.314,0.631c1.103-0.651,0.387-2.839,0.387-2.839s0.102-0.905-4.463-0.122
		c0,0-1.454-5.962-3.245-7.397C297.971,382.168,297.025,390.938,297.025,390.938z"/>
	
		<linearGradient id="SVGID_00000060025913306272265420000006905853780197376387_" gradientUnits="userSpaceOnUse" x1="299.8742" y1="335.3394" x2="232.332" y2="340.2059">
		<stop  offset="0" style="stop-color:#0D051D"/>
		<stop  offset="0.37" style="stop-color:#3A2754"/>
		<stop  offset="1" style="stop-color:#AE5B48"/>
	</linearGradient>
	<path style="fill-rule:evenodd;clip-rule:evenodd;fill:url(#SVGID_00000060025913306272265420000006905853780197376387_);" d="
		M266.373,338.051c0,0-6.521-0.897-7,2.727c0,0,0.891-0.346,1.43-0.234c0,0,2.687,1.037,3.623,1.027c0,0-0.743,8.049,0.438,8.648
		c1.17,0.58,9.33-4.375,11.481-8.008c0,0,5.571,2.229,7.483,1.1c1.924-1.129,0.682-4.945,0.682-4.945s0.174-1.566-7.753-0.213
		c0,0-2.523-10.348-5.637-12.841C268.007,322.829,266.373,338.051,266.373,338.051z"/>
	
		<linearGradient id="SVGID_00000152226391095119395710000005827759990512739999_" gradientUnits="userSpaceOnUse" x1="327.3441" y1="354.2971" x2="277.9022" y2="357.8265">
		<stop  offset="0" style="stop-color:#0D051D"/>
		<stop  offset="0.48" style="stop-color:#3A2754"/>
		<stop  offset="1" style="stop-color:#AE5B48"/>
	</linearGradient>
	<path style="fill-rule:evenodd;clip-rule:evenodd;fill:url(#SVGID_00000152226391095119395710000005827759990512739999_);" d="
		M313.685,349.984c0,0-12.133-1.76-13.578-1.953c-1.439-0.184-3.906-0.01-4.395,1.689c0,0,0.447-0.203,0.682-0.152
		c0,0,0.773,0.986,2.33,1.322c0,0,2.757,9.604,6.013,12.525c3.261,2.93,1.317-3.592,1.222-4.05c0,0,1.348-2.666-0.637-5.067
		c0,0,0.524-1.23,0.097-2.065c0,0,2.316-0.122,3.49-1.038c0,0,1.821,0.163,3.286,0.855c1.465,0.682,1.363-0.601,1.363-0.601
		S315.584,350.219,313.685,349.984z"/>
	
		<linearGradient id="SVGID_00000009573936254597332490000017195347576044096133_" gradientUnits="userSpaceOnUse" x1="340.6372" y1="393.6656" x2="304.227" y2="396.2642">
		<stop  offset="0" style="stop-color:#0D051D"/>
		<stop  offset="0.39" style="stop-color:#3A2754"/>
		<stop  offset="1" style="stop-color:#AE5B48"/>
	</linearGradient>
	<path style="fill-rule:evenodd;clip-rule:evenodd;fill:url(#SVGID_00000009573936254597332490000017195347576044096133_);" d="
		M330.581,390.5c0,0-8.939-1.302-10.002-1.444c-1.058-0.143-2.874-0.011-3.235,1.241c0,0,0.336-0.152,0.504-0.111
		c0,0,0.564,0.722,1.715,0.977c0,0,2.029,7.071,4.431,9.218c2.401,2.157,0.966-2.646,0.9-2.982c0,0,0.987-1.963-0.474-3.733
		c0,0,0.387-0.905,0.076-1.517c0,0,1.699-0.092,2.564-0.763c0,0,1.344,0.122,2.422,0.62c1.084,0.51,1.002-0.438,1.002-0.438
		S331.975,390.663,330.581,390.5z"/>
	
		<linearGradient id="SVGID_00000069367450197368645730000011187998925519515534_" gradientUnits="userSpaceOnUse" x1="364.2419" y1="387.991" x2="324.7004" y2="390.8134">
		<stop  offset="0" style="stop-color:#0D051D"/>
		<stop  offset="0.42" style="stop-color:#3A2754"/>
		<stop  offset="1" style="stop-color:#AE5B48"/>
	</linearGradient>
	<path style="fill-rule:evenodd;clip-rule:evenodd;fill:url(#SVGID_00000069367450197368645730000011187998925519515534_);" d="
		M353.316,384.549c0,0-9.701-1.415-10.856-1.567c-1.155-0.153-3.124-0.011-3.515,1.353c0,0,0.355-0.162,0.544-0.121
		c0,0,0.615,0.783,1.866,1.058c0,0,2.203,7.672,4.809,10.012c2.609,2.351,1.053-2.869,0.981-3.235c0,0,1.068-2.137-0.518-4.06
		c0,0,0.422-0.977,0.081-1.648c0,0,1.852-0.091,2.788-0.824c0,0,1.46,0.132,2.635,0.672c1.17,0.55,1.084-0.478,1.084-0.478
		S354.838,384.731,353.316,384.549z"/>
	
		<linearGradient id="SVGID_00000044156986909341098020000016772624455466856378_" gradientUnits="userSpaceOnUse" x1="353.564" y1="365.7075" x2="305.9261" y2="369.1092">
		<stop  offset="0" style="stop-color:#0D051D"/>
		<stop  offset="0.46" style="stop-color:#3A2754"/>
		<stop  offset="1" style="stop-color:#AE5B48"/>
	</linearGradient>
	<path style="fill-rule:evenodd;clip-rule:evenodd;fill:url(#SVGID_00000044156986909341098020000016772624455466856378_);" d="
		M340.404,361.554c0,0-11.69-1.699-13.079-1.882c-1.394-0.184-3.765-0.022-4.237,1.627c0,0,0.432-0.193,0.656-0.152
		c0,0,0.742,0.957,2.248,1.271c0,0,2.65,9.26,5.795,12.078c3.139,2.828,1.267-3.46,1.175-3.907c0,0,1.298-2.564-0.615-4.884
		c0,0,0.503-1.181,0.097-1.994c0,0,2.229-0.102,3.357-0.998c0,0,1.76,0.163,3.174,0.824c1.415,0.662,1.309-0.58,1.309-0.58
		S342.231,361.768,340.404,361.554z"/>
	<g>
		
			<linearGradient id="SVGID_00000088112848575859710220000007550407285655961519_" gradientUnits="userSpaceOnUse" x1="192.6809" y1="359.7829" x2="82.697" y2="367.3867">
			<stop  offset="0" style="stop-color:#0D051D"/>
			<stop  offset="0.38" style="stop-color:#3A2754"/>
			<stop  offset="1" style="stop-color:#AE5B48"/>
		</linearGradient>
		<path style="fill-rule:evenodd;clip-rule:evenodd;fill:url(#SVGID_00000088112848575859710220000007550407285655961519_);" d="
			M130.706,359.926c0,0-4.968-7.488-5.712-12.04c-0.744-4.553-4.008,2.428-0.431,8.801c0,0-0.123,4.121,3.485,5.716
			c0,0,1.258,4.005,3.568,4.2c0,0,1.224,4.181,2.09,5.521c0.871,1.351-1.855,3.593-0.592,5.17c1.263,1.575,2.261,0.636,2.261,0.636
			s3.04,5.013,5.62,2.555c0,0,5.741,1.772,5.737-0.401c-0.01-2.164-5.062-4.464-6.261-7.636c0,0,4.64,0.813,6.657-0.988
			c0,0,12.237,1.42,12.697-5.14c0,0,6.735-1.919,6.535-5.708c-0.2-3.778-16.222,4.768-25.879,4.24c0,0-2.173-1.842-4.518-4.621
			C133.618,357.459,130.706,359.926,130.706,359.926z"/>
		
			<linearGradient id="SVGID_00000101794640399798139990000015353580662995295158_" gradientUnits="userSpaceOnUse" x1="287.0655" y1="386.5656" x2="203.3984" y2="392.5382">
			<stop  offset="0" style="stop-color:#0D051D"/>
			<stop  offset="0.38" style="stop-color:#3A2754"/>
			<stop  offset="1" style="stop-color:#AE5B48"/>
		</linearGradient>
		<path style="fill-rule:evenodd;clip-rule:evenodd;fill:url(#SVGID_00000101794640399798139990000015353580662995295158_);" d="
			M263.952,379.271c0,0-20.538-2.986-22.976-3.309c-2.442-0.313-6.613-0.029-7.44,2.858c0,0,0.754-0.343,1.15-0.264
			c0,0,1.302,1.674,3.95,2.242c0,0,4.66,16.25,10.177,21.203c5.522,4.954,2.227-6.079,2.065-6.862c0,0,2.275-4.513-1.083-8.576
			c0,0,0.887-2.074,0.172-3.505c0,0,3.915-0.186,5.904-1.741c0,0,3.083,0.274,5.564,1.429c2.482,1.165,2.296-1.008,2.296-1.008
			S267.164,379.652,263.952,379.271z"/>
		
			<linearGradient id="SVGID_00000111176722233988514290000003990348097335462289_" gradientUnits="userSpaceOnUse" x1="175.6281" y1="317.3476" x2="72.6592" y2="324.4659">
			<stop  offset="0" style="stop-color:#0D051D"/>
			<stop  offset="0.38" style="stop-color:#3A2754"/>
			<stop  offset="1" style="stop-color:#AE5B48"/>
		</linearGradient>
		<path style="fill-rule:evenodd;clip-rule:evenodd;fill:url(#SVGID_00000111176722233988514290000003990348097335462289_);" d="
			M117.602,317.488c0,0-4.65-7.009-5.345-11.277c-0.695-4.259-3.754,2.281-0.406,8.243c0,0-0.117,3.856,3.26,5.354
			c0,0,1.18,3.739,3.338,3.935c0,0,1.15,3.897,1.963,5.161c0.813,1.263-1.737,3.367-0.553,4.835
			c1.185,1.479,2.115,0.598,2.115,0.598s2.844,4.688,5.262,2.389c0,0,5.374,1.654,5.365-0.372c-0.005-2.026-4.729-4.17-5.859-7.147
			c0,0,4.351,0.765,6.236-0.92c0,0,11.454,1.322,11.889-4.816c0,0,6.299-1.801,6.113-5.345c-0.186-3.534-15.184,4.464-24.224,3.965
			c0,0-2.041-1.714-4.234-4.317C120.328,315.169,117.602,317.488,117.602,317.488z"/>
		
			<linearGradient id="SVGID_00000080167462853497926310000012248581052614771365_" gradientUnits="userSpaceOnUse" x1="104.5331" y1="285.1127" x2="8.6468" y2="294.3313">
			<stop  offset="0" style="stop-color:#0D051D"/>
			<stop  offset="0.38" style="stop-color:#3A2754"/>
			<stop  offset="1" style="stop-color:#AE5B48"/>
		</linearGradient>
		<path style="fill-rule:evenodd;clip-rule:evenodd;fill:url(#SVGID_00000080167462853497926310000012248581052614771365_);" d="
			M63.543,299.652c0,0-11.238,2.428-13.436,4.16c-2.198,1.732,0.886,4.131,2.54,3.671c0,0-1.351,5.718,2.854,3.916
			c0,0,5.331,3.809,10.969-6.96c0,0,5.58-0.315,9.81-4.376c4.229-4.073,5.824-7.264,5.824-7.264s1.17-0.598,2.11,0.313
			c0,0-0.563-5.913-6.647-3.152c0,0-3.549-16.681-2.878-22.535c0.665-5.845-3.774,5.159-3.721,5.962c0,0-6.5,1.37-1.855,12.158
			c0,0-9.608-16.799-13.348-18.043c-3.74-1.242-0.47,8.058-0.47,8.058s-4.626,6.765,1.787,13.353
			C57.083,288.912,55.403,295.198,63.543,299.652z"/>
		
			<linearGradient id="SVGID_00000163764662414684889660000017521130304114004151_" gradientUnits="userSpaceOnUse" x1="201.0533" y1="236.4935" x2="36.113" y2="242.5496">
			<stop  offset="0" style="stop-color:#0D051D"/>
			<stop  offset="0.38" style="stop-color:#3A2754"/>
			<stop  offset="1" style="stop-color:#AE5B48"/>
		</linearGradient>
		<path style="fill-rule:evenodd;clip-rule:evenodd;fill:url(#SVGID_00000163764662414684889660000017521130304114004151_);" d="
			M143.804,235.577c0,0,9.389-7.333,12.228-12.751c2.843-5.419,4.028,4.738-3.138,11.243c0,0-1.571,5.243-6.779,5.742
			c0,0-3.254,4.498-6.246,3.788c0,0-3.285,4.734-4.944,6.065c-1.66,1.332,0.827,5.296-1.419,6.747
			c-2.252,1.449-3.108-0.147-3.108-0.147s-5.923,5.031-8.14,0.852c0,0-7.959-0.177-7.043-2.899c0.92-2.723,8.229-3.491,11.072-6.98
			c0,0-6.187-0.92-7.959-4.029c0,0-15.982-3.348-13.818-11.782c0,0-7.665-5.237-5.831-9.917c1.836-4.675,18.405,12.79,30.774,16.168
			c0,0,3.505-1.4,7.622-3.911C141.185,231.254,143.804,235.577,143.804,235.577z"/>
		
			<linearGradient id="SVGID_00000059309494118097042320000006875274413778664367_" gradientUnits="userSpaceOnUse" x1="173.9026" y1="278.1107" x2="72.3458" y2="285.8436">
			<stop  offset="0" style="stop-color:#0D051D"/>
			<stop  offset="0.38" style="stop-color:#3A2754"/>
			<stop  offset="1" style="stop-color:#AE5B48"/>
		</linearGradient>
		<path style="fill-rule:evenodd;clip-rule:evenodd;fill:url(#SVGID_00000059309494118097042320000006875274413778664367_);" d="
			M135.228,277.067c0,0-11.855-12.873-22.442-12.394c-10.583,0.479,0.47,6.05,0.47,6.05s-0.059,7.959,9.755,8.762
			c0,0,1.581,4.102,5.448,4.561c0,0,0.822,1.811,0.2,2.898c-0.622,1.087-5.697,2.212-6.123,4.758
			c-0.421,2.545,2.208,2.555,2.208,2.555s-1.508,3.367,1.375,4.287c2.878,0.921,3.47-0.753,3.47-0.753s2.345,2.585,4.053,1.125
			c1.708-1.448,1.449-3.348,1.449-3.348s2.53,1.087,3.201,0.177c0.67-0.91-2.452-5.375-2.075-7.117
			c0.376-1.753,3.294-4.064,3.588-5.385c0,0,1.757-0.548,2.452,0.314c0,0-0.132-1.214-0.671-1.852c0,0,3.441-1.467,3.965-3.651
			c0,0,3.294-0.44,3.436-1.595C149.134,275.305,148.175,272.28,135.228,277.067z"/>
		
			<linearGradient id="SVGID_00000169540470612254221630000008473212742324959393_" gradientUnits="userSpaceOnUse" x1="121.136" y1="329.6607" x2="16.6553" y2="336.4602">
			<stop  offset="0" style="stop-color:#0D051D"/>
			<stop  offset="0.38" style="stop-color:#3A2754"/>
			<stop  offset="1" style="stop-color:#AE5B48"/>
		</linearGradient>
		<path style="fill-rule:evenodd;clip-rule:evenodd;fill:url(#SVGID_00000169540470612254221630000008473212742324959393_);" d="
			M74.518,331.635c0,0-7.548-3.916-12.922-9.389c-5.375-5.473-7.254-5.453-7.298-4.17c-0.044,1.282,1.439,3.504,1.439,3.504
			s-1.812,6.04,3.773,10.338c0,0,0.02,5.952,8.826,7.833c0,0-5.619,3.69-4.729,5.384c0.896,1.703,2.834,1.282,2.834,1.282
			s0.994,4.308,4.121,2.006c0,0,2.002,1.803,2.849,0.549c0.847-1.263,1.185-6.97,1.185-6.97s7.328,1.175,10.196-1.801
			c0,0,3.759-1.116,4.983-3.711c0,0,6.236-3.279,6.266-6.285c0.029-3.006-6.559,2.849-15.429,2.477c0,0,0.626-1.018,0.612-2.731
			c0,0,0.157-0.391,0.911-0.646C82.134,329.304,78.938,325.369,74.518,331.635z"/>
		
			<linearGradient id="SVGID_00000034779912125856720010000003956985868714270088_" gradientUnits="userSpaceOnUse" x1="291.0925" y1="205.3779" x2="104.8249" y2="212.2191">
			<stop  offset="0" style="stop-color:#0D051D"/>
			<stop  offset="0.38" style="stop-color:#3A2754"/>
			<stop  offset="1" style="stop-color:#AE5B48"/>
		</linearGradient>
		<path style="fill-rule:evenodd;clip-rule:evenodd;fill:url(#SVGID_00000034779912125856720010000003956985868714270088_);" d="
			M226.448,204.345c0,0,10.598-8.287,13.808-14.4c3.212-6.119,4.543,5.35-3.543,12.702c0,0-1.777,5.913-7.66,6.481
			c0,0-3.676,5.081-7.049,4.273c0,0-3.715,5.35-5.585,6.853c-1.87,1.503,0.935,5.981-1.605,7.616c-2.541,1.64-3.51-0.162-3.51-0.162
			s-6.687,5.678-9.192,0.964c0,0-8.992-0.206-7.949-3.279c1.033-3.074,9.29-3.94,12.496-7.886c0,0-6.984-1.033-8.987-4.547
			c0,0-18.047-3.778-15.609-13.304c0,0-8.654-5.918-6.579-11.199c2.07-5.282,20.784,14.444,34.753,18.257
			c0,0,3.959-1.576,8.605-4.415C223.487,199.46,226.448,204.345,226.448,204.345z"/>
		
			<linearGradient id="SVGID_00000046338002821406194300000016994416975866691714_" gradientUnits="userSpaceOnUse" x1="133.8531" y1="228.281" x2="-38.2689" y2="232.5053">
			<stop  offset="0" style="stop-color:#0D051D"/>
			<stop  offset="0.38" style="stop-color:#3A2754"/>
			<stop  offset="1" style="stop-color:#AE5B48"/>
		</linearGradient>
		<path style="fill-rule:evenodd;clip-rule:evenodd;fill:url(#SVGID_00000046338002821406194300000016994416975866691714_);" d="
			M75.34,224.886c0,0,8.513-8.718,10.651-14.591c2.144-5.878,4.729,4.249-1.645,11.821c0,0-0.881,5.526-6.089,6.745
			c0,0-2.687,5.003-5.815,4.689c0,0-2.688,5.248-4.185,6.823c-1.498,1.576,1.562,5.253-0.519,7.029
			c-2.081,1.782-3.167,0.279-3.167,0.279s-5.316,5.903-8.135,1.977c0,0-8.096,0.901-7.533-1.982
			c0.558-2.883,7.861-4.66,10.264-8.585c0,0-6.388-0.088-8.615-2.996c0,0-16.652-1.214-15.614-10.059c0,0-8.478-4.263-7.26-9.256
			c1.224-4.993,20.397,10.45,33.397,12.188c0,0,3.363-1.894,7.191-5.003C72.09,220.857,75.34,224.886,75.34,224.886z"/>
		
			<linearGradient id="SVGID_00000057122061556089912220000015089347202712050833_" gradientUnits="userSpaceOnUse" x1="251.9679" y1="302.5592" x2="123.5651" y2="311.4353">
			<stop  offset="0" style="stop-color:#0D051D"/>
			<stop  offset="0.38" style="stop-color:#3A2754"/>
			<stop  offset="1" style="stop-color:#AE5B48"/>
		</linearGradient>
		<path style="fill-rule:evenodd;clip-rule:evenodd;fill:url(#SVGID_00000057122061556089912220000015089347202712050833_);" d="
			M179.609,302.736c0,0-5.795-8.742-6.666-14.068c-0.866-5.316-4.679,2.84-0.504,10.279c0,0-0.142,4.807,4.067,6.677
			c0,0,1.468,4.669,4.166,4.904c0,0,1.424,4.875,2.442,6.441c1.019,1.576-2.164,4.199-0.69,6.03
			c1.478,1.841,2.638,0.743,2.638,0.743s3.549,5.855,6.564,2.986c0,0,6.701,2.066,6.691-0.47c-0.01-2.525-5.903-5.207-7.308-8.908
			c0,0,5.423,0.95,7.773-1.155c0,0,14.288,1.654,14.827-6.001c0,0,7.861-2.242,7.626-6.657c-0.23-4.425-18.934,5.561-30.211,4.944
			c0,0-2.54-2.145-5.276-5.395C183.012,299.848,179.609,302.736,179.609,302.736z"/>
		
			<linearGradient id="SVGID_00000174597842105989359160000014550631073021822650_" gradientUnits="userSpaceOnUse" x1="187.8725" y1="183.1471" x2="64.3212" y2="192.6189">
			<stop  offset="0" style="stop-color:#0D051D"/>
			<stop  offset="0.38" style="stop-color:#3A2754"/>
			<stop  offset="1" style="stop-color:#AE5B48"/>
		</linearGradient>
		<path style="fill-rule:evenodd;clip-rule:evenodd;fill:url(#SVGID_00000174597842105989359160000014550631073021822650_);" d="
			M132.615,188.606c0,0-8.684-6.623-14.269-14.729c-5.585-8.111-7.964-8.512-8.302-6.902c-0.338,1.62,1.043,4.758,1.043,4.758
			s-3.632,7.239,2.487,13.906c0,0-1.292,7.533,9.427,11.865c0,0-7.925,3.417-7.171,5.761c0.754,2.35,3.299,2.252,3.299,2.252
			s0.298,5.668,4.772,3.451c0,0,2.129,2.717,3.48,1.312c1.346-1.4,3.04-8.542,3.04-8.542s9.007,3.104,13.295-0.029
			c0,0,4.997-0.587,7.117-3.588c0,0,8.62-2.775,9.325-6.564c0.695-3.788-8.933,2.159-20.069-0.278c0,0,1.023-1.15,1.385-3.324
			c0,0,0.274-0.456,1.293-0.612C142.767,187.343,139.595,181.655,132.615,188.606z"/>
		
			<linearGradient id="SVGID_00000033332053798325629200000006400620238165899687_" gradientUnits="userSpaceOnUse" x1="131.3641" y1="166.5385" x2="-19.2568" y2="178.007">
			<stop  offset="0" style="stop-color:#0D051D"/>
			<stop  offset="0.38" style="stop-color:#3A2754"/>
			<stop  offset="1" style="stop-color:#AE5B48"/>
		</linearGradient>
		<path style="fill-rule:evenodd;clip-rule:evenodd;fill:url(#SVGID_00000033332053798325629200000006400620238165899687_);" d="
			M74.004,164.993c0,0-17.577-19.089-33.28-18.379c-15.698,0.705,0.7,8.967,0.7,8.967s-0.083,11.812,14.464,13.001
			c0,0,2.345,6.079,8.082,6.75c0,0,1.224,2.692,0.299,4.308c-0.92,1.615-8.454,3.284-9.08,7.059
			c-0.621,3.773,3.275,3.783,3.275,3.783s-2.242,4.998,2.031,6.364c4.273,1.365,5.15-1.117,5.15-1.117s3.48,3.823,6.011,1.67
			c2.53-2.154,2.149-4.973,2.149-4.973s3.749,1.61,4.748,0.264c0.998-1.346-3.637-7.973-3.079-10.558
			c0.558-2.59,4.885-6.011,5.321-7.983c0,0,2.604-0.808,3.637,0.47c0,0-0.196-1.796-0.994-2.746c0,0,5.105-2.178,5.879-5.409
			c0,0,4.885-0.656,5.101-2.369C94.626,162.38,93.206,157.896,74.004,164.993z"/>
		
			<linearGradient id="SVGID_00000151516985024025463550000007808446966721683103_" gradientUnits="userSpaceOnUse" x1="295.8572" y1="135.7781" x2="145.9774" y2="150.1874">
			<stop  offset="0" style="stop-color:#0D051D"/>
			<stop  offset="0.38" style="stop-color:#3A2754"/>
			<stop  offset="1" style="stop-color:#AE5B48"/>
		</linearGradient>
		<path style="fill-rule:evenodd;clip-rule:evenodd;fill:url(#SVGID_00000151516985024025463550000007808446966721683103_);" d="
			M231.781,158.514c0,0-17.563,3.784-20.999,6.496c-3.432,2.707,1.385,6.452,3.974,5.742c0,0-2.114,8.933,4.46,6.124
			c0,0,8.331,5.947,17.142-10.881c0,0,8.722-0.489,15.335-6.853c6.608-6.358,9.104-11.346,9.104-11.346s1.83-0.939,3.3,0.494
			c0,0-0.881-9.246-10.397-4.943c0,0-5.54-26.065-4.493-35.209c1.037-9.144-5.898,8.067-5.811,9.305c0,0-10.171,2.144-2.902,19.011
			c0,0-15.022-26.261-20.867-28.208c-5.844-1.943-0.729,12.604-0.729,12.604s-7.234,10.578,2.79,20.872
			C221.688,141.72,219.06,151.544,231.781,158.514z"/>
		
			<linearGradient id="SVGID_00000085967614020585084880000011984019082466493100_" gradientUnits="userSpaceOnUse" x1="229.1831" y1="257.1968" x2="113.0349" y2="266.6247">
			<stop  offset="0" style="stop-color:#0D051D"/>
			<stop  offset="0.38" style="stop-color:#3A2754"/>
			<stop  offset="1" style="stop-color:#AE5B48"/>
		</linearGradient>
		<path style="fill-rule:evenodd;clip-rule:evenodd;fill:url(#SVGID_00000085967614020585084880000011984019082466493100_);" d="
			M159.634,261.981c0,0,23.143-18.637,25.923-20.81c2.78-2.169,8.13-4.846,11.248-1.895c0,0-1.18,0.127-1.601,0.514
			c0,0-0.396,3.011-3.25,5.634c0,0,6.094,23.439,2.898,33.561c-3.196,10.132-7.181-5.884-7.548-6.951c0,0-6.089-3.906-4.915-11.375
			c0,0-2.599-1.909-2.75-4.181c0,0-4.973,2.613-8.551,2.134c0,0-3.608,2.595-5.82,5.826c-2.217,3.239-3.574,0.431-3.574,0.431
			S155.948,264.791,159.634,261.981z"/>
		
			<linearGradient id="SVGID_00000094590852142979375000000011571402302101991342_" gradientUnits="userSpaceOnUse" x1="234.019" y1="127.0821" x2="63.3709" y2="140.1645">
			<stop  offset="0" style="stop-color:#0D051D"/>
			<stop  offset="0.38" style="stop-color:#3A2754"/>
			<stop  offset="1" style="stop-color:#AE5B48"/>
		</linearGradient>
		<path style="fill-rule:evenodd;clip-rule:evenodd;fill:url(#SVGID_00000094590852142979375000000011571402302101991342_);" d="
			M157.695,134.618c0,0-11.992-9.143-19.711-20.342c-7.714-11.199-10.999-11.757-11.463-9.53c-0.47,2.232,1.439,6.568,1.439,6.568
			s-5.012,10.001,3.431,19.207c0,0-1.781,10.412,13.03,16.388c0,0-10.955,4.724-9.912,7.964c1.043,3.24,4.562,3.108,4.562,3.108
			s0.411,7.832,6.583,4.763c0,0,2.947,3.754,4.811,1.821c1.86-1.938,4.205-11.806,4.205-11.806s12.433,4.288,18.356-0.039
			c0,0,6.906-0.808,9.838-4.958c0,0,11.904-3.828,12.869-9.065c0.964-5.233-12.33,2.98-27.71-0.387c0,0,1.404-1.581,1.904-4.591
			c0,0,0.387-0.622,1.787-0.842C171.714,132.876,167.338,125.019,157.695,134.618z"/>
	</g>
	
		<linearGradient id="SVGID_00000062187994222625488890000001491297383837942462_" gradientUnits="userSpaceOnUse" x1="553.0126" y1="228.9836" x2="75.4493" y2="223.1788">
		<stop  offset="0" style="stop-color:#0D051D"/>
		<stop  offset="0.32" style="stop-color:#3A2754"/>
		<stop  offset="1" style="stop-color:#AE5B48"/>
	</linearGradient>
	<path style="fill-rule:evenodd;clip-rule:evenodd;fill:url(#SVGID_00000062187994222625488890000001491297383837942462_);" d="
		M394.906,268.527c0,0,2.034,22.557,4.517,24.855c3.673,3.398,15.903,9.29,17.603,9.656c7.214,1.516,28.551-26.881,32.834-26.637
		c1.893,0.111,31.948,20.949,50.141,29.832V158.989c-7.071-10.73-16.788-13.294-24.893-14.591
		c-8.104-1.292-41.426,16.987-47.531,19.185c-6.105,2.203-39.299-6.914-47.002-6.599c-7.697,0.311-40.256,35.087-42.377,40.745
		c-2.127,5.662,0.533,13.522-1.328,16.666c-1.857,3.139-10.094-3.46-14.336-3.46c-4.254,0-16.732,9.122-19.119,12.266
		c-2.391,3.144-1.332,13.843-2.925,16.035c-1.593,2.198-33.825,11.31-39.401,10.999c-5.576-0.315-19.652,20.123-22.044,25.78
		c-2.386,5.667,13.812,25.162,19.388,29.567c5.575,4.405,66.649,5.342,75.409,2.197c8.766-3.144,34.518-25.161,39.564-28.296
		c5.047-3.133,5.993-10.57,6.919-12.138C381.256,265.77,393.049,266.318,394.906,268.527z"/>
	
		<linearGradient id="SVGID_00000178198392428804476270000006704651715311144867_" gradientUnits="userSpaceOnUse" x1="517.6721" y1="282.9243" x2="91.3274" y2="277.5179">
		<stop  offset="0" style="stop-color:#060314"/>
		<stop  offset="0.32" style="stop-color:#261F40"/>
		<stop  offset="1" style="stop-color:#8B4435"/>
	</linearGradient>
	<path style="fill-rule:evenodd;clip-rule:evenodd;fill:url(#SVGID_00000178198392428804476270000006704651715311144867_);" d="
		M261.088,250.235c-5.576-0.311-19.652,20.123-22.044,25.78c-2.386,5.667,13.812,25.162,19.388,29.567
		c5.575,4.405,66.649,5.342,75.409,2.197c8.766-3.144,34.518-25.161,39.564-28.296c0.957-0.6,1.842-1.557,2.646-2.736
		c-0.107,0.071-29.45,17.571-39.162,22.252c-9.728,4.69-69.544,2.991-72.785,1.496c-3.24-1.496-17.836-15.578-16.757-23.688
		C248.431,268.699,261.088,250.235,261.088,250.235z"/>
	
		<linearGradient id="SVGID_00000034768424380251618020000005249715528853110430_" gradientUnits="userSpaceOnUse" x1="519.4929" y1="160.2063" x2="93.2937" y2="154.8018">
		<stop  offset="0" style="stop-color:#3C1738"/>
		<stop  offset="0.32" style="stop-color:#61275D"/>
		<stop  offset="1" style="stop-color:#BB5951"/>
	</linearGradient>
	<path style="fill-rule:evenodd;clip-rule:evenodd;fill:url(#SVGID_00000034768424380251618020000005249715528853110430_);" d="
		M475.107,144.398c-9.823-1.572-41.426,16.987-47.531,19.185c-6.105,2.203-41.787-6.812-47.002-6.599
		c-5.215,0.209-7.91,3.434-13.553,7.926c9.6-4.38,34.543,4.604,48.051,6.949c13.512,2.351,14.417,6.614,27.93-7.254
		C456.509,150.737,475.107,144.398,475.107,144.398z"/>
	
		<linearGradient id="SVGID_00000106137750023098937310000016625894301340009402_" gradientUnits="userSpaceOnUse" x1="383.0017" y1="446.1777" x2="58.1329" y2="435.4273">
		<stop  offset="0" style="stop-color:#412444"/>
		<stop  offset="0.27" style="stop-color:#5F4368"/>
		<stop  offset="1" style="stop-color:#B7715B"/>
	</linearGradient>
	<path style="fill-rule:evenodd;clip-rule:evenodd;fill:url(#SVGID_00000106137750023098937310000016625894301340009402_);" d="
		M144.186,443.877l0.84,1.262c0,0,3.301-9.748,4.054-10.348c0.758-0.59,4.273-2.89,6.538-2.89c-1.338-0.56-5.983,1.272-7.204,2.065
		C147.604,434.496,145.569,439.634,144.186,443.877z"/>
	
		<linearGradient id="SVGID_00000033340941250892302510000007805202499878786949_" gradientUnits="userSpaceOnUse" x1="375.6889" y1="451.4024" x2="59.158" y2="440.928">
		<stop  offset="0" style="stop-color:#412444"/>
		<stop  offset="0.27" style="stop-color:#5F4368"/>
		<stop  offset="1" style="stop-color:#B7715B"/>
	</linearGradient>
	<path style="fill-rule:evenodd;clip-rule:evenodd;fill:url(#SVGID_00000033340941250892302510000007805202499878786949_);" d="
		M139.79,439.898c0,0-3.063,2.646-3.108,3.765c-0.051,1.108-0.097,3.449-0.097,3.449s-0.758,0.163-0.977-0.061
		c-0.056-1.953,0-3.632,0.234-3.979C136.392,442.259,138.798,439.919,139.79,439.898L139.79,439.898z"/>
	
		<text transform="matrix(1 0 0 1 146.2642 70.6749)" style="fill:#FFFFFF; font-family:'Roboto-Light'; font-size:28.6305px; letter-spacing:4;">FLYING BIRD</text>
	<text transform="matrix(1 0 0 1 212.4595 85.5544)" style="fill:#FFFFFF; font-family:'Roboto-Regular'; font-size:11.3372px;">BACKGROUND</text>
</g>
<g id="DESIGNED_BY_FREEPIK">
	<g>
		<path style="fill-rule:evenodd;clip-rule:evenodd;fill:#FFFFFF;" d="M170.548,31.33c0,0.48,0.074,0.886,0.224,1.224
			c0.147,0.336,0.352,0.59,0.611,0.76c0.258,0.171,0.541,0.256,0.848,0.256c0.309,0,0.594-0.081,0.852-0.243
			c0.256-0.161,0.461-0.409,0.614-0.742c0.153-0.336,0.23-0.754,0.23-1.254c0-0.47-0.076-0.875-0.23-1.214
			c-0.153-0.338-0.36-0.597-0.621-0.776c-0.261-0.18-0.548-0.267-0.857-0.267c-0.323,0-0.612,0.091-0.867,0.275
			c-0.255,0.182-0.452,0.444-0.593,0.788C170.617,30.479,170.548,30.877,170.548,31.33L170.548,31.33z M174.023,33.926v-0.175
			c-0.238,0.271-0.472,0.492-0.702,0.661c-0.231,0.171-0.481,0.302-0.751,0.39c-0.271,0.09-0.564,0.134-0.883,0.134
			c-0.424,0-0.815-0.09-1.176-0.27c-0.36-0.179-0.672-0.435-0.935-0.767c-0.265-0.332-0.463-0.722-0.599-1.172
			c-0.136-0.448-0.205-0.934-0.205-1.455c0-1.104,0.271-1.967,0.81-2.583c0.54-0.616,1.25-0.925,2.13-0.925
			c0.509,0,0.939,0.088,1.288,0.262c0.35,0.174,0.689,0.443,1.022,0.806v-2.608c0-0.361,0.071-0.636,0.216-0.821
			c0.145-0.187,0.351-0.277,0.619-0.277c0.267,0,0.473,0.084,0.617,0.255s0.217,0.421,0.217,0.754v7.792
			c0,0.337-0.077,0.589-0.232,0.758c-0.156,0.167-0.356,0.252-0.602,0.252c-0.242,0-0.441-0.088-0.6-0.263
			C174.102,34.497,174.023,34.248,174.023,33.926z"/>
		<path style="fill-rule:evenodd;clip-rule:evenodd;fill:#FFFFFF;" d="M178.357,30.773h3.204c-0.042-0.603-0.207-1.057-0.489-1.355
			c-0.282-0.301-0.654-0.449-1.116-0.449c-0.439,0-0.801,0.15-1.084,0.455C178.59,29.729,178.419,30.179,178.357,30.773
			L178.357,30.773z M181.813,31.777h-3.456c0.005,0.401,0.086,0.754,0.243,1.061c0.157,0.307,0.367,0.537,0.628,0.692
			c0.262,0.156,0.549,0.232,0.863,0.232c0.212,0,0.405-0.023,0.58-0.073c0.175-0.05,0.344-0.127,0.508-0.233
			c0.164-0.105,0.315-0.22,0.453-0.34c0.138-0.121,0.316-0.285,0.537-0.492c0.091-0.077,0.22-0.117,0.389-0.117
			c0.182,0,0.328,0.052,0.439,0.15c0.111,0.1,0.169,0.238,0.169,0.421c0,0.158-0.063,0.345-0.188,0.56
			c-0.127,0.213-0.315,0.418-0.566,0.614c-0.254,0.197-0.57,0.359-0.952,0.488c-0.382,0.13-0.82,0.193-1.316,0.193
			c-1.134,0-2.018-0.322-2.646-0.97c-0.631-0.648-0.945-1.525-0.945-2.634c0-0.521,0.077-1.007,0.233-1.452
			c0.156-0.447,0.383-0.829,0.68-1.149c0.298-0.319,0.664-0.563,1.101-0.734c0.436-0.17,0.919-0.255,1.45-0.255
			c0.689,0,1.281,0.145,1.775,0.437c0.495,0.29,0.864,0.667,1.109,1.128c0.246,0.462,0.369,0.933,0.369,1.411
			c0,0.444-0.127,0.732-0.381,0.865C182.635,31.711,182.275,31.777,181.813,31.777z"/>
		<path style="fill-rule:evenodd;clip-rule:evenodd;fill:#FFFFFF;" d="M189.864,32.624c0,0.488-0.118,0.905-0.356,1.253
			c-0.236,0.348-0.588,0.61-1.052,0.789c-0.464,0.18-1.027,0.27-1.692,0.27c-0.634,0-1.178-0.098-1.631-0.292
			c-0.452-0.193-0.787-0.438-1.003-0.728c-0.215-0.292-0.323-0.584-0.323-0.878c0-0.194,0.069-0.36,0.208-0.498
			c0.138-0.138,0.313-0.206,0.523-0.206c0.186,0,0.327,0.045,0.427,0.136c0.1,0.091,0.195,0.218,0.285,0.382
			c0.181,0.314,0.398,0.549,0.65,0.705c0.252,0.155,0.596,0.233,1.032,0.233c0.354,0,0.644-0.078,0.871-0.236
			c0.226-0.157,0.339-0.337,0.339-0.541c0-0.311-0.117-0.536-0.354-0.678c-0.234-0.143-0.622-0.279-1.161-0.409
			c-0.608-0.149-1.104-0.31-1.485-0.476c-0.382-0.165-0.686-0.385-0.915-0.656c-0.229-0.272-0.344-0.606-0.344-1.003
			c0-0.355,0.106-0.688,0.317-1.004c0.211-0.313,0.524-0.565,0.935-0.752c0.412-0.19,0.908-0.282,1.491-0.282
			c0.457,0,0.869,0.047,1.232,0.142c0.365,0.095,0.67,0.224,0.913,0.382c0.244,0.16,0.43,0.337,0.556,0.53
			c0.128,0.194,0.191,0.384,0.191,0.57c0,0.202-0.067,0.369-0.203,0.499c-0.136,0.127-0.329,0.193-0.58,0.193
			c-0.182,0-0.335-0.052-0.463-0.156c-0.126-0.104-0.271-0.258-0.437-0.465c-0.134-0.172-0.29-0.311-0.472-0.415
			c-0.182-0.104-0.427-0.154-0.738-0.154c-0.319,0-0.584,0.067-0.796,0.204c-0.211,0.135-0.317,0.304-0.317,0.507
			c0,0.186,0.077,0.338,0.233,0.457c0.155,0.118,0.364,0.218,0.628,0.294c0.264,0.078,0.625,0.172,1.087,0.284
			c0.548,0.136,0.995,0.294,1.343,0.479c0.348,0.185,0.61,0.404,0.79,0.657C189.774,32.013,189.864,32.301,189.864,32.624z"/>
		<path style="fill-rule:evenodd;clip-rule:evenodd;fill:#FFFFFF;" d="M192.543,28.754v5.107c0,0.354-0.085,0.622-0.253,0.803
			c-0.168,0.181-0.382,0.271-0.641,0.271c-0.259,0-0.47-0.091-0.631-0.277c-0.162-0.186-0.242-0.45-0.242-0.796v-5.055
			c0-0.349,0.08-0.612,0.242-0.79c0.161-0.176,0.372-0.265,0.631-0.265c0.259,0,0.473,0.089,0.641,0.265
			C192.458,28.193,192.543,28.44,192.543,28.754L192.543,28.754z M191.668,26.93c-0.246,0-0.455-0.075-0.63-0.228
			c-0.176-0.149-0.262-0.362-0.262-0.639c0-0.253,0.089-0.457,0.268-0.619c0.179-0.163,0.388-0.243,0.624-0.243
			c0.229,0,0.433,0.073,0.608,0.22c0.178,0.148,0.267,0.361,0.267,0.643c0,0.271-0.087,0.483-0.26,0.636
			C192.11,26.853,191.905,26.93,191.668,26.93z"/>
		<path style="fill-rule:evenodd;clip-rule:evenodd;fill:#FFFFFF;" d="M195.163,31.284c0,0.717,0.156,1.259,0.469,1.625
			c0.313,0.367,0.717,0.551,1.213,0.551c0.293,0,0.57-0.079,0.832-0.237c0.262-0.157,0.474-0.395,0.638-0.711
			c0.163-0.317,0.246-0.702,0.246-1.156c0-0.719-0.158-1.281-0.477-1.681c-0.317-0.402-0.734-0.603-1.252-0.603
			c-0.505,0-0.909,0.191-1.213,0.576C195.314,30.031,195.163,30.577,195.163,31.284L195.163,31.284z M200.281,29.046v5.131
			c0,0.588-0.063,1.093-0.188,1.516c-0.125,0.422-0.325,0.772-0.602,1.048c-0.276,0.275-0.638,0.481-1.084,0.614
			c-0.446,0.135-1.002,0.201-1.667,0.201c-0.608,0-1.151-0.086-1.631-0.256c-0.479-0.171-0.847-0.391-1.107-0.66
			c-0.259-0.268-0.389-0.547-0.389-0.831c0-0.216,0.074-0.393,0.222-0.527c0.146-0.137,0.323-0.204,0.53-0.204
			c0.258,0,0.484,0.114,0.679,0.342c0.095,0.117,0.192,0.235,0.294,0.354c0.102,0.119,0.215,0.22,0.337,0.305
			c0.123,0.083,0.271,0.145,0.443,0.188c0.172,0.038,0.372,0.06,0.596,0.06c0.457,0,0.813-0.063,1.066-0.189
			c0.252-0.128,0.429-0.306,0.53-0.534c0.102-0.229,0.16-0.474,0.178-0.735c0.018-0.261,0.03-0.681,0.038-1.259
			c-0.271,0.381-0.584,0.671-0.941,0.868c-0.355,0.198-0.779,0.298-1.271,0.298c-0.591,0-1.107-0.152-1.55-0.453
			c-0.441-0.302-0.781-0.726-1.02-1.269c-0.237-0.545-0.355-1.171-0.355-1.883c0-0.53,0.07-1.01,0.216-1.436
			c0.145-0.429,0.351-0.789,0.618-1.081c0.267-0.295,0.575-0.516,0.925-0.664c0.35-0.149,0.734-0.224,1.152-0.224
			c0.5,0,0.934,0.098,1.301,0.288c0.366,0.193,0.708,0.494,1.023,0.903v-0.239c0-0.307,0.074-0.543,0.227-0.712
			c0.15-0.168,0.345-0.253,0.583-0.253c0.341,0,0.566,0.111,0.679,0.334C200.226,28.307,200.281,28.628,200.281,29.046z"/>
		<path style="fill-rule:evenodd;clip-rule:evenodd;fill:#FFFFFF;" d="M203.09,28.729v0.214c0.31-0.41,0.649-0.711,1.02-0.903
			c0.368-0.191,0.792-0.288,1.271-0.288c0.466,0,0.883,0.102,1.249,0.305c0.366,0.203,0.641,0.49,0.821,0.859
			c0.117,0.217,0.192,0.45,0.226,0.7c0.035,0.25,0.054,0.569,0.054,0.958v3.287c0,0.354-0.082,0.622-0.243,0.803
			c-0.162,0.181-0.372,0.271-0.631,0.271c-0.264,0-0.478-0.092-0.641-0.277c-0.165-0.186-0.246-0.45-0.246-0.796v-2.944
			c0-0.583-0.082-1.028-0.243-1.337c-0.162-0.308-0.483-0.463-0.967-0.463c-0.316,0-0.603,0.095-0.861,0.282
			s-0.449,0.446-0.569,0.773c-0.086,0.265-0.13,0.756-0.13,1.476v2.214c0,0.357-0.083,0.627-0.248,0.806
			c-0.166,0.18-0.381,0.268-0.645,0.268c-0.255,0-0.463-0.092-0.628-0.277c-0.163-0.186-0.246-0.45-0.246-0.796v-5.107
			c0-0.336,0.073-0.588,0.221-0.754c0.146-0.165,0.347-0.249,0.602-0.249c0.155,0,0.296,0.036,0.421,0.11
			c0.125,0.073,0.226,0.184,0.301,0.329C203.053,28.338,203.09,28.517,203.09,28.729z"/>
		<path style="fill-rule:evenodd;clip-rule:evenodd;fill:#FFFFFF;" d="M210.383,30.773h3.203c-0.043-0.603-0.206-1.057-0.489-1.355
			c-0.282-0.301-0.654-0.449-1.115-0.449c-0.44,0-0.803,0.15-1.085,0.455C210.613,29.729,210.443,30.179,210.383,30.773
			L210.383,30.773z M213.838,31.777h-3.455c0.005,0.401,0.085,0.754,0.242,1.061c0.157,0.307,0.367,0.537,0.628,0.692
			c0.261,0.156,0.549,0.232,0.863,0.232c0.211,0,0.405-0.023,0.58-0.073c0.174-0.05,0.344-0.127,0.509-0.233
			c0.163-0.105,0.314-0.22,0.452-0.34c0.138-0.121,0.316-0.285,0.537-0.492c0.091-0.077,0.22-0.117,0.389-0.117
			c0.181,0,0.327,0.052,0.439,0.15c0.112,0.1,0.168,0.238,0.168,0.421c0,0.158-0.063,0.345-0.188,0.56
			c-0.126,0.213-0.314,0.418-0.566,0.614c-0.253,0.197-0.569,0.359-0.951,0.488c-0.382,0.13-0.821,0.193-1.317,0.193
			c-1.134,0-2.017-0.322-2.646-0.97c-0.63-0.648-0.944-1.525-0.944-2.634c0-0.521,0.078-1.007,0.233-1.452
			c0.155-0.447,0.382-0.829,0.68-1.149c0.298-0.319,0.665-0.563,1.101-0.734c0.436-0.17,0.919-0.255,1.449-0.255
			c0.689,0,1.281,0.145,1.776,0.437c0.494,0.29,0.863,0.667,1.109,1.128c0.246,0.462,0.369,0.933,0.369,1.411
			c0,0.444-0.127,0.732-0.382,0.865C214.658,31.711,214.301,31.777,213.838,31.777z"/>
		<path style="fill-rule:evenodd;clip-rule:evenodd;fill:#FFFFFF;" d="M217.565,31.33c0,0.48,0.073,0.886,0.223,1.224
			c0.148,0.336,0.352,0.59,0.612,0.76c0.259,0.171,0.541,0.256,0.847,0.256c0.311,0,0.596-0.081,0.851-0.243
			c0.256-0.161,0.462-0.409,0.614-0.742c0.153-0.336,0.23-0.754,0.23-1.254c0-0.47-0.077-0.875-0.23-1.214
			c-0.152-0.338-0.359-0.597-0.621-0.776c-0.261-0.18-0.546-0.267-0.857-0.267c-0.323,0-0.612,0.091-0.867,0.275
			c-0.255,0.182-0.452,0.444-0.592,0.788C217.635,30.479,217.565,30.877,217.565,31.33L217.565,31.33z M221.04,33.926v-0.175
			c-0.237,0.271-0.472,0.492-0.703,0.661c-0.23,0.171-0.48,0.302-0.749,0.39c-0.27,0.09-0.564,0.134-0.884,0.134
			c-0.423,0-0.815-0.09-1.175-0.27c-0.36-0.179-0.672-0.435-0.935-0.767c-0.264-0.332-0.463-0.722-0.599-1.172
			c-0.136-0.448-0.204-0.934-0.204-1.455c0-1.104,0.269-1.967,0.809-2.583c0.539-0.616,1.249-0.925,2.129-0.925
			c0.51,0,0.939,0.088,1.288,0.262c0.349,0.174,0.69,0.443,1.022,0.806v-2.608c0-0.361,0.072-0.636,0.217-0.821
			c0.145-0.187,0.351-0.277,0.619-0.277c0.267,0,0.473,0.084,0.617,0.255c0.143,0.171,0.217,0.421,0.217,0.754v7.792
			c0,0.337-0.077,0.589-0.233,0.758c-0.156,0.167-0.356,0.252-0.601,0.252c-0.242,0-0.442-0.088-0.6-0.263
			C221.118,34.497,221.04,34.248,221.04,33.926z"/>
		<path style="fill-rule:evenodd;clip-rule:evenodd;fill:#FFFFFF;" d="M228.346,31.383c0,0.702,0.16,1.242,0.482,1.619
			c0.32,0.379,0.742,0.567,1.264,0.567c0.444,0,0.828-0.191,1.149-0.579c0.321-0.387,0.482-0.939,0.482-1.66
			c0-0.466-0.066-0.868-0.2-1.203c-0.135-0.338-0.324-0.598-0.57-0.779c-0.245-0.185-0.533-0.275-0.861-0.275
			c-0.336,0-0.636,0.091-0.898,0.275c-0.264,0.182-0.471,0.447-0.622,0.795C228.421,30.488,228.346,30.902,228.346,31.383
			L228.346,31.383z M228.261,26.134v2.698c0.332-0.346,0.671-0.609,1.017-0.793c0.345-0.183,0.771-0.275,1.282-0.275
			c0.586,0,1.1,0.141,1.543,0.418c0.441,0.278,0.784,0.682,1.028,1.21c0.243,0.528,0.366,1.154,0.366,1.881
			c0,0.535-0.068,1.024-0.204,1.471c-0.136,0.446-0.334,0.835-0.592,1.162c-0.26,0.328-0.573,0.582-0.941,0.761
			c-0.37,0.18-0.776,0.27-1.221,0.27c-0.271,0-0.528-0.032-0.767-0.098c-0.239-0.064-0.443-0.149-0.612-0.256
			c-0.167-0.105-0.311-0.214-0.43-0.326c-0.119-0.112-0.275-0.281-0.47-0.505v0.174c0,0.333-0.079,0.584-0.239,0.755
			c-0.159,0.171-0.361,0.256-0.608,0.256c-0.25,0-0.45-0.085-0.598-0.256c-0.149-0.171-0.225-0.422-0.225-0.755v-7.714
			c0-0.357,0.072-0.63,0.218-0.811c0.145-0.184,0.346-0.275,0.605-0.275c0.272,0,0.481,0.087,0.628,0.262
			C228.188,25.562,228.261,25.809,228.261,26.134z"/>
		<path style="fill-rule:evenodd;clip-rule:evenodd;fill:#FFFFFF;" d="M235.787,35.155l0.161-0.396l-2.174-5.475
			c-0.134-0.315-0.2-0.544-0.2-0.687c0-0.15,0.039-0.291,0.116-0.419c0.077-0.131,0.185-0.233,0.319-0.312
			c0.137-0.079,0.278-0.116,0.425-0.116c0.255,0,0.446,0.08,0.576,0.242c0.13,0.162,0.244,0.393,0.343,0.695l1.495,4.35l1.418-4.046
			c0.111-0.325,0.213-0.584,0.304-0.77c0.09-0.186,0.186-0.311,0.287-0.375c0.102-0.064,0.245-0.097,0.431-0.097
			c0.134,0,0.263,0.034,0.386,0.106c0.122,0.071,0.218,0.166,0.284,0.287c0.066,0.121,0.101,0.248,0.101,0.382
			c-0.018,0.083-0.045,0.198-0.084,0.351c-0.04,0.15-0.086,0.304-0.143,0.458l-2.304,6.032c-0.199,0.53-0.393,0.946-0.583,1.249
			c-0.189,0.302-0.44,0.535-0.754,0.695c-0.313,0.162-0.734,0.243-1.266,0.243c-0.517,0-0.905-0.057-1.164-0.168
			c-0.26-0.113-0.388-0.317-0.388-0.615c0-0.203,0.061-0.359,0.185-0.469c0.122-0.11,0.305-0.166,0.546-0.166
			c0.095,0,0.188,0.014,0.278,0.04c0.112,0.025,0.21,0.039,0.291,0.039c0.202,0,0.362-0.03,0.479-0.092
			c0.117-0.06,0.221-0.164,0.314-0.313C235.56,35.663,235.667,35.443,235.787,35.155z"/>
		<path style="fill-rule:evenodd;clip-rule:evenodd;fill:#FFFFFF;" d="M261.381,27.904h0.422v-0.53c0-0.555,0.068-0.992,0.209-1.321
			c0.139-0.325,0.379-0.562,0.713-0.711c0.334-0.148,0.793-0.223,1.373-0.223c1.037,0,1.549,0.25,1.549,0.76
			c0,0.162-0.053,0.303-0.162,0.42c-0.105,0.114-0.234,0.173-0.381,0.173c-0.068,0-0.189-0.013-0.359-0.04
			c-0.162-0.022-0.309-0.038-0.424-0.038c-0.32,0-0.523,0.096-0.617,0.282c-0.086,0.188-0.133,0.456-0.133,0.809v0.42H264
			c0.676,0,1.012,0.201,1.012,0.61c0,0.284-0.088,0.471-0.268,0.547c-0.18,0.078-0.426,0.117-0.744,0.117h-0.43v4.682
			c0,0.349-0.082,0.614-0.252,0.796c-0.164,0.186-0.377,0.276-0.643,0.276c-0.25,0-0.457-0.091-0.625-0.276
			c-0.166-0.182-0.248-0.447-0.248-0.796v-4.682h-0.486c-0.264,0-0.465-0.057-0.609-0.178c-0.141-0.117-0.215-0.272-0.215-0.462
			C260.492,28.113,260.789,27.904,261.381,27.904z"/>
		<path style="fill-rule:evenodd;clip-rule:evenodd;fill:#FFFFFF;" d="M267.166,32.384v1.477c0,0.356-0.092,0.626-0.256,0.805
			c-0.168,0.181-0.381,0.268-0.639,0.268c-0.26,0-0.467-0.089-0.631-0.271c-0.16-0.18-0.246-0.447-0.246-0.801V28.94
			c0-0.795,0.287-1.192,0.859-1.192c0.297,0,0.508,0.093,0.637,0.279c0.127,0.187,0.201,0.458,0.215,0.823
			c0.211-0.365,0.426-0.637,0.647-0.823c0.226-0.187,0.519-0.279,0.892-0.279c0.375,0,0.73,0.093,1.08,0.279
			c0.352,0.187,0.525,0.434,0.525,0.739c0,0.214-0.074,0.395-0.221,0.531c-0.15,0.143-0.311,0.213-0.482,0.213
			c-0.068,0-0.227-0.043-0.471-0.123c-0.25-0.076-0.471-0.117-0.656-0.117c-0.26,0-0.473,0.07-0.635,0.203
			c-0.164,0.14-0.293,0.339-0.385,0.604c-0.088,0.269-0.15,0.59-0.186,0.957C267.18,31.403,267.166,31.854,267.166,32.384z"/>
		<path style="fill-rule:evenodd;clip-rule:evenodd;fill:#FFFFFF;" d="M271.83,30.771h3.203c-0.041-0.603-0.203-1.056-0.486-1.354
			c-0.285-0.301-0.654-0.449-1.117-0.449c-0.439,0-0.803,0.149-1.084,0.455C272.064,29.727,271.891,30.176,271.83,30.771
			L271.83,30.771z M275.287,31.775h-3.457c0.008,0.4,0.084,0.756,0.242,1.061c0.16,0.304,0.369,0.536,0.629,0.693
			c0.264,0.155,0.549,0.231,0.865,0.231c0.211,0,0.404-0.023,0.578-0.076c0.174-0.047,0.346-0.126,0.51-0.231
			c0.164-0.104,0.313-0.218,0.451-0.341c0.139-0.119,0.318-0.284,0.539-0.489c0.092-0.078,0.221-0.119,0.387-0.119
			c0.184,0,0.328,0.05,0.441,0.151c0.113,0.1,0.168,0.238,0.168,0.42c0,0.16-0.063,0.347-0.182,0.558
			c-0.129,0.218-0.316,0.421-0.572,0.618c-0.254,0.194-0.57,0.359-0.951,0.486c-0.381,0.13-0.82,0.194-1.316,0.194
			c-1.139,0-2.02-0.321-2.648-0.969c-0.629-0.649-0.947-1.528-0.947-2.635c0-0.521,0.08-1.007,0.236-1.454
			c0.152-0.449,0.381-0.829,0.68-1.15c0.299-0.321,0.662-0.564,1.1-0.734c0.434-0.17,0.918-0.255,1.449-0.255
			c0.689,0,1.281,0.146,1.777,0.439c0.492,0.287,0.865,0.665,1.109,1.128c0.246,0.463,0.369,0.932,0.369,1.412
			c0,0.442-0.129,0.729-0.383,0.863C276.107,31.71,275.75,31.775,275.287,31.775z"/>
		<path style="fill-rule:evenodd;clip-rule:evenodd;fill:#FFFFFF;" d="M279.182,30.771h3.203c-0.043-0.603-0.207-1.056-0.486-1.354
			c-0.289-0.301-0.656-0.449-1.119-0.449c-0.441,0-0.801,0.149-1.086,0.455C279.412,29.727,279.238,30.176,279.182,30.771
			L279.182,30.771z M282.639,31.775h-3.457c0.004,0.4,0.086,0.756,0.24,1.061c0.158,0.304,0.369,0.536,0.627,0.693
			c0.262,0.155,0.551,0.231,0.869,0.231c0.207,0,0.402-0.023,0.574-0.076c0.176-0.047,0.344-0.126,0.512-0.231
			c0.164-0.104,0.313-0.218,0.451-0.341c0.137-0.119,0.316-0.284,0.539-0.489c0.092-0.078,0.221-0.119,0.385-0.119
			c0.186,0,0.332,0.05,0.445,0.151c0.111,0.1,0.162,0.238,0.162,0.42c0,0.16-0.059,0.347-0.186,0.558
			c-0.121,0.218-0.311,0.421-0.564,0.618c-0.254,0.194-0.574,0.359-0.951,0.486c-0.381,0.13-0.824,0.194-1.318,0.194
			c-1.137,0-2.018-0.321-2.648-0.969c-0.631-0.649-0.947-1.528-0.947-2.635c0-0.521,0.08-1.007,0.236-1.454
			c0.154-0.449,0.381-0.829,0.68-1.15c0.297-0.321,0.662-0.564,1.1-0.734c0.434-0.17,0.92-0.255,1.451-0.255
			c0.688,0,1.281,0.146,1.779,0.439c0.492,0.287,0.863,0.665,1.105,1.128c0.246,0.463,0.371,0.932,0.371,1.412
			c0,0.442-0.131,0.729-0.383,0.863C283.455,31.71,283.1,31.775,282.639,31.775z"/>
		<path style="fill-rule:evenodd;clip-rule:evenodd;fill:#FFFFFF;" d="M289.973,31.309c0-0.467-0.074-0.867-0.213-1.201
			c-0.145-0.335-0.342-0.59-0.592-0.768c-0.25-0.18-0.533-0.271-0.84-0.271c-0.486,0-0.898,0.193-1.232,0.575
			c-0.336,0.386-0.502,0.95-0.502,1.699c0,0.698,0.164,1.248,0.498,1.639c0.334,0.391,0.74,0.585,1.236,0.585
			c0.293,0,0.564-0.087,0.816-0.254c0.252-0.173,0.453-0.427,0.602-0.768C289.896,32.204,289.973,31.791,289.973,31.309
			L289.973,31.309z M286.508,28.742v0.211c0.332-0.408,0.678-0.71,1.039-0.901c0.353-0.193,0.762-0.291,1.215-0.291
			c0.541,0,1.047,0.141,1.504,0.421c0.457,0.28,0.816,0.691,1.082,1.229c0.266,0.542,0.398,1.18,0.398,1.918
			c0,0.542-0.076,1.044-0.229,1.499c-0.152,0.455-0.365,0.836-0.633,1.145c-0.268,0.308-0.582,0.546-0.945,0.713
			c-0.371,0.164-0.758,0.247-1.178,0.247c-0.504,0-0.93-0.101-1.271-0.304c-0.342-0.199-0.668-0.5-0.982-0.891v2.652
			c0,0.775-0.283,1.166-0.848,1.166c-0.334,0-0.551-0.1-0.662-0.3c-0.103-0.203-0.158-0.493-0.158-0.88v-7.626
			c0-0.338,0.072-0.586,0.219-0.755c0.145-0.163,0.348-0.249,0.602-0.249c0.25,0,0.455,0.086,0.611,0.256
			C286.432,28.175,286.508,28.419,286.508,28.742z"/>
		<path style="fill-rule:evenodd;clip-rule:evenodd;fill:#FFFFFF;" d="M294.402,28.751v5.111c0,0.352-0.086,0.619-0.254,0.799
			c-0.17,0.183-0.381,0.271-0.641,0.271s-0.467-0.091-0.633-0.276c-0.158-0.188-0.242-0.453-0.242-0.794v-5.062
			c0-0.348,0.084-0.609,0.242-0.786c0.166-0.181,0.373-0.267,0.633-0.267s0.471,0.087,0.641,0.267
			C294.316,28.191,294.402,28.438,294.402,28.751L294.402,28.751z M293.527,26.926c-0.248,0-0.457-0.078-0.631-0.229
			c-0.176-0.151-0.264-0.362-0.264-0.639c0-0.25,0.09-0.456,0.272-0.619c0.178-0.16,0.385-0.242,0.623-0.242
			c0.23,0,0.432,0.072,0.608,0.218c0.176,0.148,0.267,0.363,0.267,0.644c0,0.273-0.088,0.485-0.26,0.638
			C293.971,26.848,293.766,26.926,293.527,26.926z"/>
		<path style="fill-rule:evenodd;clip-rule:evenodd;fill:#FFFFFF;" d="M300.098,34.127l-1.557-2.565l-0.959,0.904v1.408
			c0,0.34-0.09,0.601-0.272,0.782c-0.174,0.186-0.385,0.277-0.617,0.277c-0.271,0-0.488-0.09-0.641-0.273
			c-0.154-0.18-0.234-0.447-0.234-0.801v-7.537c0-0.392,0.078-0.689,0.225-0.896c0.152-0.206,0.373-0.308,0.65-0.308
			c0.271,0,0.486,0.094,0.646,0.28c0.16,0.184,0.242,0.459,0.242,0.819v4.289l1.986-2.088c0.246-0.256,0.43-0.437,0.563-0.53
			c0.129-0.095,0.287-0.142,0.471-0.142c0.221,0,0.404,0.07,0.557,0.21c0.143,0.14,0.217,0.316,0.217,0.527
			c0,0.258-0.24,0.605-0.719,1.036l-0.938,0.86l1.813,2.851c0.131,0.213,0.23,0.369,0.287,0.48c0.059,0.108,0.09,0.218,0.09,0.315
			c0,0.282-0.078,0.501-0.234,0.664c-0.152,0.161-0.355,0.241-0.602,0.241c-0.217,0-0.385-0.055-0.502-0.174
			C300.455,34.641,300.293,34.43,300.098,34.127z"/>
		<path style="fill-rule:evenodd;clip-rule:evenodd;fill:#FFFFFF;" d="M303.938,34.933c-0.268,0-0.498-0.085-0.691-0.259
			c-0.193-0.171-0.293-0.412-0.293-0.726c0-0.262,0.096-0.489,0.281-0.678c0.185-0.19,0.412-0.285,0.685-0.285
			c0.272,0,0.502,0.095,0.697,0.281c0.191,0.186,0.287,0.416,0.287,0.682c0,0.309-0.096,0.551-0.287,0.722
			C304.422,34.848,304.195,34.933,303.938,34.933z"/>
		<path style="fill-rule:evenodd;clip-rule:evenodd;fill:#FFFFFF;" d="M312.725,32.746c0,0.219-0.064,0.456-0.197,0.705
			c-0.129,0.252-0.332,0.489-0.605,0.715c-0.268,0.227-0.605,0.41-1.018,0.548c-0.408,0.138-0.871,0.209-1.383,0.209
			c-1.094,0-1.947-0.319-2.561-0.955c-0.609-0.638-0.916-1.492-0.916-2.563c0-0.726,0.137-1.366,0.42-1.924
			c0.279-0.554,0.686-0.985,1.215-1.29c0.531-0.306,1.17-0.456,1.904-0.456c0.457,0,0.877,0.066,1.262,0.2
			c0.383,0.134,0.703,0.308,0.971,0.518c0.264,0.215,0.469,0.438,0.605,0.676c0.143,0.239,0.211,0.464,0.211,0.674
			c0,0.208-0.078,0.389-0.234,0.536c-0.16,0.146-0.352,0.22-0.572,0.22c-0.148,0-0.27-0.039-0.367-0.113
			c-0.098-0.075-0.209-0.196-0.326-0.369c-0.217-0.325-0.439-0.573-0.68-0.734c-0.234-0.166-0.531-0.247-0.893-0.247
			c-0.52,0-0.945,0.202-1.264,0.611c-0.32,0.406-0.48,0.968-0.48,1.672c0,0.333,0.043,0.641,0.125,0.918
			c0.08,0.277,0.199,0.516,0.355,0.712c0.156,0.195,0.342,0.344,0.56,0.445c0.223,0.104,0.465,0.154,0.727,0.154
			c0.355,0,0.658-0.081,0.91-0.245c0.258-0.165,0.479-0.414,0.672-0.752c0.107-0.197,0.223-0.354,0.348-0.465
			c0.123-0.111,0.277-0.17,0.461-0.17c0.215,0,0.395,0.083,0.535,0.246C312.652,32.386,312.725,32.562,312.725,32.746z"/>
		<path style="fill-rule:evenodd;clip-rule:evenodd;fill:#FFFFFF;" d="M318.576,31.343c0-0.722-0.158-1.281-0.477-1.683
			c-0.314-0.405-0.74-0.605-1.275-0.605c-0.346,0-0.652,0.091-0.916,0.268c-0.264,0.18-0.463,0.443-0.605,0.794
			c-0.143,0.351-0.215,0.759-0.215,1.227c0,0.463,0.068,0.863,0.209,1.208c0.143,0.347,0.344,0.611,0.605,0.793
			c0.262,0.183,0.568,0.277,0.922,0.277c0.535,0,0.961-0.202,1.275-0.607C318.418,32.61,318.576,32.052,318.576,31.343
			L318.576,31.343z M320.352,31.343c0,0.523-0.084,1.011-0.244,1.457c-0.168,0.444-0.402,0.826-0.715,1.143
			c-0.311,0.32-0.684,0.565-1.113,0.736c-0.434,0.169-0.918,0.255-1.455,0.255c-0.535,0-1.018-0.086-1.445-0.26
			c-0.426-0.17-0.799-0.419-1.107-0.736c-0.314-0.326-0.553-0.707-0.719-1.143c-0.156-0.438-0.238-0.924-0.238-1.452
			c0-0.535,0.084-1.026,0.244-1.472c0.164-0.446,0.402-0.825,0.709-1.139c0.307-0.315,0.678-0.558,1.111-0.73
			c0.439-0.17,0.918-0.255,1.445-0.255c0.535,0,1.022,0.085,1.455,0.26c0.435,0.17,0.807,0.419,1.123,0.735
			c0.311,0.323,0.545,0.702,0.707,1.14C320.268,30.326,320.352,30.81,320.352,31.343z"/>
		<path style="fill-rule:evenodd;clip-rule:evenodd;fill:#FFFFFF;" d="M327.09,31.473v2.348c0,0.372-0.08,0.647-0.252,0.836
			c-0.17,0.186-0.389,0.279-0.666,0.279c-0.266,0-0.486-0.094-0.648-0.279c-0.168-0.188-0.254-0.464-0.254-0.836v-2.815
			c0-0.444-0.012-0.792-0.041-1.038c-0.031-0.241-0.115-0.446-0.248-0.602c-0.133-0.16-0.346-0.239-0.635-0.239
			c-0.578,0-0.959,0.198-1.143,0.6c-0.182,0.394-0.275,0.964-0.275,1.709v2.386c0,0.366-0.084,0.646-0.246,0.834
			c-0.17,0.186-0.387,0.281-0.658,0.281c-0.27,0-0.488-0.096-0.658-0.281c-0.172-0.188-0.256-0.468-0.256-0.834v-5.055
			c0-0.333,0.074-0.586,0.228-0.758c0.154-0.175,0.357-0.261,0.605-0.261c0.242,0,0.443,0.085,0.607,0.243
			c0.162,0.162,0.242,0.386,0.242,0.671v0.166c0.309-0.363,0.637-0.634,0.984-0.805c0.35-0.177,0.736-0.262,1.166-0.262
			c0.443,0,0.826,0.089,1.143,0.266c0.32,0.177,0.582,0.446,0.793,0.801c0.297-0.359,0.619-0.629,0.959-0.805
			c0.342-0.174,0.717-0.262,1.133-0.262c0.48,0,0.9,0.097,1.25,0.285c0.346,0.189,0.607,0.463,0.781,0.815
			c0.15,0.321,0.225,0.823,0.225,1.51v3.449c0,0.372-0.082,0.647-0.25,0.836c-0.168,0.186-0.391,0.279-0.666,0.279
			c-0.271,0-0.488-0.096-0.658-0.281c-0.17-0.188-0.256-0.468-0.256-0.834v-2.972c0-0.381-0.018-0.684-0.049-0.912
			c-0.031-0.229-0.121-0.422-0.26-0.577c-0.145-0.154-0.363-0.233-0.648-0.233c-0.234,0-0.455,0.072-0.664,0.209
			c-0.209,0.136-0.373,0.325-0.492,0.554C327.158,30.188,327.09,30.716,327.09,31.473z"/>
		<path style="fill-rule:evenodd;clip-rule:evenodd;fill:#FFFFFF;" d="M244.846,30.915c-0.001-0.005-0.001-0.007-0.001-0.014
			C244.845,30.908,244.845,30.91,244.846,30.915z"/>
		<path style="fill-rule:evenodd;clip-rule:evenodd;fill:#FFFFFF;" d="M244.936,31.479h0.002c-0.034-0.159-0.061-0.32-0.081-0.476
			C244.877,31.159,244.903,31.321,244.936,31.479z"/>
		<path style="fill-rule:evenodd;clip-rule:evenodd;fill:#FFFFFF;" d="M245.52,33.119c-0.005-0.007-0.008-0.015-0.012-0.022
			C245.513,33.104,245.516,33.112,245.52,33.119z"/>
		<path style="fill-rule:evenodd;clip-rule:evenodd;fill:#FFFFFF;" d="M245.464,33.01c-0.015-0.029-0.029-0.061-0.044-0.091
			C245.435,32.95,245.449,32.98,245.464,33.01z"/>
		<path style="fill-rule:evenodd;clip-rule:evenodd;fill:#FFFFFF;" d="M245.1,32.11c0.087,0.272,0.19,0.538,0.311,0.79
			c-0.123-0.258-0.225-0.522-0.309-0.79H245.1z"/>
		<path style="fill-rule:evenodd;clip-rule:evenodd;fill:#FFFFFF;" d="M251.686,24.145c0.342,0,0.594,0.026,0.881,0.075l0.082-0.52
			c0,0-0.797-0.245-1.846-0.16l-0.083-0.282c0.327-0.068,0.571-0.358,0.571-0.704c0-0.396-0.322-0.719-0.72-0.719
			c-0.398,0-0.72,0.322-0.72,0.719c0,0.346,0.244,0.636,0.569,0.704l0.091,0.316c-1.113,0.151-2,0.586-2,0.586l0.158,0.48
			c0.673-0.225,1.257-0.36,1.787-0.417C250.977,24.168,251.367,24.145,251.686,24.145z"/>
		<path style="fill-rule:evenodd;clip-rule:evenodd;fill:#FFFFFF;" d="M245.507,26.772l0.004-0.006
			c0.025-0.033,0.052-0.064,0.077-0.097l-0.214-0.152l-0.332-0.243c-0.018,0.026-0.541,0.507-0.954,1.394
			c-0.018-0.027-0.039-0.054-0.063-0.08c-0.123-0.135-0.296-0.205-0.516-0.2h-0.01c-0.137,0-0.23-0.046-0.291-0.1
			c0.061-0.078,0.098-0.175,0.098-0.282c0-0.25-0.204-0.455-0.457-0.455c-0.251,0-0.455,0.205-0.455,0.455
			c0,0.252,0.204,0.456,0.455,0.456c0.04,0,0.077-0.007,0.114-0.015c0.112,0.125,0.29,0.233,0.551,0.228
			c0.133-0.001,0.233,0.033,0.298,0.105c0.075,0.084,0.102,0.202,0.109,0.292c-0.002,0.001-0.002,0.004-0.003,0.004
			c-0.297,0.81-0.212,1.818-0.212,1.818l0.72,0.029c0.016-0.368,0.068-1.01,0.254-1.519
			C245.039,27.416,245.488,26.799,245.507,26.772z"/>
		<path style="fill-rule:evenodd;clip-rule:evenodd;fill:#FFFFFF;" d="M257.953,24.746c-0.25,0-0.457,0.204-0.457,0.456
			c0,0.039,0.008,0.076,0.016,0.112c-0.123,0.113-0.232,0.292-0.228,0.552c0.002,0.135-0.031,0.232-0.105,0.298
			c-0.057,0.051-0.129,0.079-0.201,0.096c-0.535-0.751-1.195-1.209-1.195-1.209l-0.518,0.554c0.391,0.355,0.789,0.801,1.178,1.356
			c0.268,0.384,0.545,0.879,0.773,1.373l0.699-0.332c0,0-0.32-0.787-0.768-1.492c0.078-0.028,0.156-0.071,0.225-0.132
			c0.137-0.123,0.203-0.298,0.199-0.516c0-0.143,0.047-0.238,0.102-0.302c0.078,0.06,0.176,0.098,0.281,0.098
			c0.252,0,0.457-0.205,0.457-0.456C258.41,24.95,258.205,24.746,257.953,24.746z"/>
		<path style="fill-rule:evenodd;clip-rule:evenodd;fill:#FFFFFF;" d="M256.143,31.016c-0.959,0.469-2.541,1.087-4.621,1.377
			c-0.815,0.113-1.607,0.154-2.335,0.154c-0.947,0-1.785-0.07-2.428-0.152c-0.733-0.091-1.307-0.204-1.657-0.284
			c0.084,0.267,0.187,0.532,0.309,0.79c0.002,0.006,0.005,0.013,0.008,0.019c0.016,0.03,0.029,0.062,0.045,0.091
			c0.015,0.03,0.029,0.059,0.045,0.087c0.004,0.008,0.008,0.016,0.012,0.022c0.206,0.389,0.454,0.746,0.736,1.056
			c0.98,1.072,1.98,1.242,1.989,1.243l0.016,0.002l0.016,0.006c0.009,0.004,0.896,0.289,2.242,0.289
			c1.326,0,2.627-0.267,3.867-0.795c0.918-0.47,1.785-1.183,2.217-1.819c0.332-0.491,0.572-1.018,0.715-1.563
			c0.076-0.29,0.135-0.755,0.1-1.244C257.148,30.476,256.723,30.735,256.143,31.016z"/>
		<path style="fill-rule:evenodd;clip-rule:evenodd;fill:#FFFFFF;" d="M248.56,26.499c1.06,0,1.919,0.859,1.919,1.919
			c0,1.061-0.858,1.918-1.919,1.918c-1.06,0-1.919-0.857-1.919-1.918C246.641,27.358,247.5,26.499,248.56,26.499L248.56,26.499z
			 M254.176,26.546c0.654,0,1.188,0.533,1.188,1.188c0,0.654-0.533,1.188-1.188,1.188c-0.656,0-1.188-0.533-1.188-1.188
			C252.988,27.079,253.52,26.546,254.176,26.546L254.176,26.546z M245.815,27c-0.028,0.041-0.445,0.631-0.773,1.535
			c-0.247,0.679-0.236,1.666-0.236,1.676v0.002c0,0.232,0.013,0.462,0.039,0.689c0,0.006,0,0.009,0.002,0.012
			c0.002,0.029,0.007,0.058,0.01,0.086c0.021,0.159,0.047,0.318,0.081,0.48c0.477,0.119,3.323,0.783,6.506,0.342
			c1.994-0.279,3.508-0.867,4.428-1.313c0.764-0.371,1.256-0.706,1.445-0.844c-0.189-0.701-0.711-1.799-1.188-2.485
			c-1.367-1.951-2.84-2.453-3.596-2.577c-0.291-0.047-0.521-0.075-0.848-0.075c-0.305,0-0.684,0.025-1.188,0.079
			c-0.506,0.052-1.071,0.185-1.725,0.405c-0.919,0.308-1.749,0.79-2.403,1.396l-0.022,0.021
			C246.25,26.516,246.047,26.705,245.815,27z"/>
	</g>
</g>
</svg>
